<svg xmlns="http://www.w3.org/2000/svg" viewBox="0 0 128 128"><path fill="#bae6fa" d="M63.797 38.701c-12.142.273-24.5 4.01-38.479 11.752-2.538 2.933-3.848 6.112-3.57 9.34.94 10.97 19.725 18.315 41.956 16.408 22.235-1.908 39.495-12.346 38.554-23.313-.177-2.058-.982-3.99-2.32-5.755-12.72-5.7-24.335-8.699-36.14-8.432Z"/><path fill="#fff" d="M65.369 38.684c-9.877-.018-19.85 2.232-30.689 7.062-.455 1.74-.7 3.55-.7 5.415 0 13.01 11.748 23.559 26.24 23.559 14.49 0 26.239-10.548 26.239-23.559 0-3.506-.862-6.83-2.393-9.82-6.32-1.722-12.49-2.645-18.697-2.657Z" opacity=".35"/><path fill="#fff" d="M60.22 37.763c-4.697-.287-12.79 2.163-19.537 4.607a20.031 20.031 0 0 0-1.594 7.846c0 11.4 10.335 20.642 21.268 20.642 10.86 0 20.47-9.258 21.268-20.64.26-3.709-1.017-7.2-2.787-10.214-6.997-1.23-14.42-1.984-18.619-2.24"/><path fill="#353333" d="M48.17 48.72c.576-1.276 1.448-1.9 2.293-2.969-.093-.253-.3-1.082-.3-1.37a2.322 2.322 0 0 1 3.178-2.155 16.913 16.913 0 0 1 13.986-3.07c.466.105.92.231 1.367.371-5.025-.697-10.688 1.083-14.54 4.192.117.277.443 1.07.443 1.391 0 1.282-.829 1.593-2.11 1.593-.293 0-.57-.056-.828-.153-.87 1.168-1.937 3.394-2.459 4.786 2.13 1.906 4.056 2.595 6.563 3.534-.005-.12.086-.23.086-.352 0-3.866 3.403-7.007 7.27-7.007a6.993 6.993 0 0 1 6.892 5.824c1.73-1.1 3.4-1.943 4.674-3.573-.296-.362-.618-1.39-.618-1.895 0-1.162.944-2.105 2.109-2.105.164 0 .322.023.477.06a18.418 18.418 0 0 0 1.445-4.192c-6.045-4.474-17.74-3.863-17.74-3.863s-9.308-.486-15.608 2.584c.42 3.038 1.632 5.925 3.42 8.37"/><path fill="#353333" d="M77.062 46.977c.429.384.662.723.844 1.052.567 1.016-.568 1.947-1.73 1.947a2.12 2.12 0 0 1-.347-.035c-1.311 2.047-3.606 4.674-5.646 5.996 3.128.513 6.077 1.764 8.424 3.7 1.708-3.063 3.02-7.483 3.02-11.237 0-2.86-1.264-4.955-3.167-6.492-.101 1.531-.92 3.674-1.398 5.07m-25.384 19.39c1.041-2.877 3.605-5.107 6.03-7.068-.356-.486-.887-1.688-1.108-2.258a16.965 16.965 0 0 1-7.605-4.812c-.013.065-.03.13-.048.194a15.34 15.34 0 0 0-.26 5.102 3.047 3.047 0 0 1 2.486 2.998c0 .885-.777 2.166-1.378 2.725.655 1.413 1.1 2.095 1.883 3.12"/><path fill="#353333" d="M51.495 68.785c-1.244-1.237-2.103-3.702-2.91-5.25a2.93 2.93 0 0 1-.463.04c-1.686 0-3.452-1.416-3.052-3.053.222-.906.846-1.498 1.865-1.992-.233-1.877-.296-4.575.14-6.525.125-.557.39-.82.566-1.35-1.86-2.723-3.063-6.296-3.063-9.839 0-.13.008-.257.01-.385-3.143 1.576-5.5 4.06-5.5 7.967 0 8.648 4.98 17.132 12.39 20.456.006-.023.01-.047.017-.07M69.717 56.83a6.997 6.997 0 0 1-6.599 4.68 6.95 6.95 0 0 1-4.318-1.5c-2.454 1.91-4.68 5.267-5.81 8.179.506.545.86.996 1.43 1.48 1.716.448 4.08 0 5.937 0 7.473 0 14.09-3.325 17.883-9.153-2.523-1.747-5.498-3.409-8.523-3.686"/><path fill="#1185b0" d="M47.978 49.73a16.908 16.908 0 0 1 2.143-3.524 2.323 2.323 0 0 1 2.174-3.135c.301 0 .59.06.855.165a16.922 16.922 0 0 1 15.353-2.698c-5.026-.696-10.217.843-14.07 3.952a2.322 2.322 0 0 1-2.966 3.07 15.664 15.664 0 0 0-2.103 3.852c1.83 1.971 4.074 3.53 6.582 4.468-.006-.12-.017-.237-.017-.36a6.997 6.997 0 0 1 6.997-6.999c3.466 0 6.335 2.52 6.895 5.824a18.132 18.132 0 0 0 4.537-4.142 2.086 2.086 0 0 1-.481-1.324c0-1.164.943-2.107 2.107-2.107.164 0 .322.024.477.06a18.403 18.403 0 0 0 1.445-4.19c-6.043-4.477-17.74-3.866-17.74-3.866s-9.308-.486-15.608 2.586c.421 3.037 1.632 5.926 3.42 8.368"/><path fill="#1185b0" d="M77.388 47.321c.429.384.703.937.703 1.558a2.108 2.108 0 0 1-2.107 2.107c-.118 0-.233-.017-.347-.036a17.043 17.043 0 0 1-5.087 5.118 17.025 17.025 0 0 1 8.198 3.684 21.158 21.158 0 0 0 2.687-10.342c0-2.86-1.263-4.954-3.167-6.49-.1 1.53-.4 3.006-.88 4.401M52 67.06a16.978 16.978 0 0 1 5.278-7.42 6.971 6.971 0 0 1-.87-1.586 16.965 16.965 0 0 1-7.603-4.812c-.015.065-.033.128-.048.192a15.295 15.295 0 0 0-.263 5.102A3.05 3.05 0 0 1 50 63.773a18.331 18.331 0 0 0 2 3.287"/><path fill="#1185b0" d="M51.486 68.749a16.96 16.96 0 0 1-3.09-4.202 3 3 0 0 1-.466.039 3.053 3.053 0 0 1-3.052-3.053c0-1.209.705-2.25 1.724-2.744a16.884 16.884 0 0 1 .283-5.773 17.13 17.13 0 0 1 .45-1.633 16.885 16.885 0 0 1-2.948-9.557c0-.129.007-.257.01-.386-3.144 1.576-5.5 4.061-5.5 7.97 0 8.647 5.164 16.085 12.574 19.41l.015-.071m18.039-10.91a6.997 6.997 0 0 1-6.599 4.68 6.96 6.96 0 0 1-4.318-1.498c-2.454 1.911-4.305 4.515-5.436 7.426a18.67 18.67 0 0 0 1.62 1.547 21.38 21.38 0 0 0 5.373.685c7.473 0 14.04-3.858 17.834-9.686-2.522-1.747-5.448-2.876-8.474-3.154"/><path fill="#fff" d="m60.95 49.56-3.663-6.55 1.982 6.953-5.942-4.32 4.655 5.848-7.377-2.713 5.821 4.307-7.464.23 7.632 1.97-7.64 1.653 7.541.545-6.36 4.073 6.55-2.374-4.545 5.756 5.741-4.632-2.066 7.722 4.432-6.284-.622 7.423 2.517-6.73 2.143 7.072.52-7.093 3.18 6.052-1.878-6.92 5.82 4.508-3.758-5.75 6.386 2.49-4.883-4.8 6.548.514-6.45-2.474 6.467-1.542-6.49-.332 5.28-4.037-5.992 2.148 4.073-5.645-5.626 3.74 1.967-6.608-3.864 5.447-.087-6.884-2.544 6.131-2.118-6.203zm0 0"/><path fill="#353333" d="M.93 68.41C20.982 48.354 37 42.164 51.535 39.337c1.925-.374 2.288-4.577 2.288-4.577s.268 3.096 1.615 3.5c1.345.403 3.096-4.847 3.096-4.847s-1.615 4.711 0 4.982c1.615.268 4.575-4.578 4.575-4.578s-1.21 4.173-.402 4.442c.807.27 4.844-6.057 4.844-6.057s-2.421 4.173-.134 4.577c2.29.405 5.628-2.848 5.628-2.848s-2.625 2.975-1.455 3.387c4.98 1.75 9.01-4.723 9.01-4.723s-.934 2.838-3.356 5.934c5.248 1.347 9.147-6.56 9.147-6.56l-3.9 7.907c2.02 1.076 10.096-8.21 10.096-8.21s-4.173 7.267-6.595 8.746c1.345 1.08 6.19-3.228 6.19-3.228s-3.902 4.843-2.421 5.113c2.153 1.75 10.093-9.018 10.093-9.018s-3.094 6.326-7.672 11.306c3.825 1.913 13.326-10.363 13.326-10.363s-.27 3.902-7.133 10.095c5.113-.673 11.71-10.364 11.71-10.364s-2.424 7.268-8.212 12.381c5.022-.52 13.055-12.92 13.055-12.92s-3.096 8.613-9.42 13.594c6.998 1.55 17.093-8.884 17.093-8.884s-3.971 7.404-9.152 10.433c5.788 2.22 13.728-6.932 13.728-6.932s-7.94 12.248-20.593 11.71c-4.15-.177-16.706-12.595-43.609-11.576C27.445 43.106 19.906 58.18.93 68.41" opacity=".35"/><path fill="#353333" d="M93.409 30.142s-8.075 9.287-10.095 8.21l3.899-7.908s-3.9 7.907-9.146 6.562c2.42-3.096 3.355-5.935 3.355-5.935s-4.03 6.474-9.01 4.723c-1.17-.41 1.455-3.385 1.455-3.385s-3.34 3.251-5.627 2.847c-2.288-.403.134-4.576.134-4.576s-4.037 6.327-4.847 6.057c-.806-.268.405-4.442.405-4.442s-2.96 4.846-4.575 4.577c-1.615-.27 0-4.98 0-4.98s-1.75 5.25-3.096 4.845c-1.347-.403-1.615-3.499-1.615-3.499s-.364 4.203-2.288 4.575c-14.536 2.828-30.553 9.02-50.608 29.073 18.977-10.23 26.514-25.304 62.047-26.649 26.903-1.02 39.458 11.397 43.609 11.574 12.653.54 20.594-11.71 20.594-11.71s-7.941 9.152-13.73 6.931c5.183-3.027 9.153-10.43 9.153-10.43s-10.095 10.43-17.092 8.882c6.324-4.979 9.419-13.59 9.419-13.59s-8.033 12.397-13.055 12.92c5.788-5.115 8.21-12.385 8.21-12.385s-6.595 9.692-11.71 10.366c6.866-6.192 7.136-10.095 7.136-10.095s-9.5 12.276-13.325 10.363c4.573-4.98 7.67-11.306 7.67-11.306s-7.94 10.768-10.094 9.018c-1.481-.27 2.424-5.115 2.424-5.115s-4.845 4.307-6.192 3.23c2.422-1.48 6.594-8.748 6.594-8.748zm12.916 22.638c-1.354-.092-2.548.414-3.158 2.075C96.907 66.767 83.785 73.43 68.44 75.65c-15.344 2.22-26.65-1.006-35.937-3.623C20.29 68.583 10.6 74.709 0 69.392c2.452 1.94 5.25 3.836 13.325 3.86 2.738.01 11.507-.43 13.122.983 1.615 1.414-5.45 8.076-5.45 8.076s11.955-10.108 13.122-6.662c.726 2.145-3.432 7.875-3.432 7.875s4.17-5.658 7.27-6.865c2.126-.83 3.92-.73 5.45 1.414 1.01 1.412-4.845 8.277-4.845 8.277s7.872-7.671 9.286-7.267c1.414.402 0 7.267 0 7.267s2.896-6.956 4.44-7.47c2.12-.706-4.845 16.15-4.845 16.15s8.507-15.595 10.095-15.946c2.726-.606 4.544 10.9 4.544 10.9s-1.328-10.052.1-10.7c9.04-4.09 3.838 17.363 3.838 17.363s5.912-14.558 2.28-17.787c9.588 6.358 8.42 17.787 8.42 17.787s2.52-5.442-4.552-18.823c3.838-.2 9.596 9.94 9.596 9.94s-6.257-11.104-2.017-11.305c8.424-.4 9.287 14.737 9.287 14.737s2.523-2.12-4.24-16.96c4.306-2.758 14.738 13.73 14.738 13.73s-9.623-16.084-8.075-17.161c1.546-1.077 7.202 5.116 7.202 5.116s-4.307-5.922-3.165-6.528c1.144-.607 12.586 11.777 12.586 11.777s-10.096-12.115-8.346-13.596c1.035-.877 4.035.745 6.325 2.216-3.21-2.296-7.821-5.889-6.325-6.666 3.096-1.607 11.913 3.844 11.913 3.844s-5.317-4.374-4.443-5.45c.875-1.078 11.305 6.864 11.305 6.864s-9.22-7.27-9.69-9.086c-.472-1.816 7.27.606 7.27.606s-8.548-3.97-8.682-5.114c-.136-1.146 5.652 1.278 5.652 1.278s-3.754-3.086-6.734-3.286zm-.266 17.01a109.786 109.786 0 0 0 2.827 1.956s-1.25-.942-2.827-1.956z"/><path fill="#353333" d="M.404 70.603c10.598 5.317 20.29-.807 32.504 2.634 9.286 2.617 20.592 5.846 35.935 3.623 15.345-2.218 28.467-8.882 34.728-20.794 1.95-5.317 9.892 1.21 9.892 1.21s-5.788-2.42-5.654-1.277c.136 1.144 8.68 5.113 8.68 5.113s-7.737-2.42-7.266-.605c.472 1.818 9.689 9.086 9.689 9.086s-10.428-7.942-11.304-6.866c-.875 1.077 4.44 5.454 4.44 5.454s-8.814-5.454-11.91-3.845c-2.226 1.155 9.152 8.623 9.152 8.623s-7.403-5.653-9.152-4.172c-1.75 1.48 8.346 13.593 8.346 13.593S97.04 69.997 95.898 70.603c-1.146.605 3.163 6.527 3.163 6.527s-5.654-6.19-7.2-5.113c-1.548 1.077 8.076 17.159 8.076 17.159s-10.432-16.487-14.74-13.728c6.765 14.838 4.24 16.96 4.24 16.96s-.862-15.14-9.286-14.74c-4.24.202 2.018 11.307 2.018 11.307s-5.76-10.142-9.596-9.94c7.07 13.38 4.55 18.82 4.55 18.82S78.29 86.432 68.7 80.072c3.634 3.23-2.28 17.787-2.28 17.787s5.204-21.453-3.836-17.363c-1.429.646-.1 10.7-.1 10.7s-1.819-11.51-4.542-10.901c-1.59.352-10.095 15.948-10.095 15.948s6.965-16.858 4.845-16.15c-1.544.515-4.44 7.47-4.44 7.47s1.411-6.864 0-7.268c-1.415-.405-9.289 7.268-9.289 7.268s5.857-6.864 4.845-8.278c-1.53-2.142-3.323-2.243-5.45-1.414-3.097 1.207-7.268 6.865-7.268 6.865s4.158-5.73 3.432-7.875C33.356 73.415 21.4 83.525 21.4 83.525s7.065-6.664 5.45-8.076c-1.615-1.414-10.385-.976-13.122-.983C5.653 74.44 2.855 72.545.403 70.604" opacity=".35"/></svg>
