<?xml version="1.0" encoding="utf-8"?>
<!-- Generator: Adobe Illustrator 26.0.3, SVG Export Plug-In . SVG Version: 6.00 Build 0)  -->
<svg version="1.0" id="Layer_1" xmlns="http://www.w3.org/2000/svg" xmlns:xlink="http://www.w3.org/1999/xlink" x="0px" y="0px"
	 viewBox="0 0 1258.7 878.1" style="enable-background:new 0 0 1258.7 878.1;" xml:space="preserve">
<style type="text/css">
	.st0{fill:#76CAE7;}
	.st1{fill:url(#SVGID_1_);}
	.st2{clip-path:url(#SVGID_00000036234352242478366640000001482162206300148105_);}
	.st3{fill:#F2F2F2;}
</style>
<path class="st0" d="M375.2,282.1c-4.1,0-7.4-3.2-7.4-7.3v-0.1l0,0c-0.1-46.6-37.8-84.4-84.5-84.5c-4.1,0-7.4-3.3-7.4-7.4l0,0
	c0-4.1,3.3-7.4,7.4-7.4l0,0l0,0c46.6-0.1,84.4-37.9,84.5-84.5c0-4.1,3.3-7.4,7.3-7.4c0,0,0,0,0,0h0.1c4.1,0,7.4,3.2,7.4,7.3
	c0,0,0,0,0,0v0.1l0,0c0.1,46.6,37.8,84.4,84.5,84.5c4.1,0,7.4,3.2,7.4,7.3v0.1l0,0c0,4.1-3.3,7.4-7.3,7.4H467
	c-46.6,0-84.4,37.8-84.5,84.5C382.6,278.7,379.3,282,375.2,282.1z"/>
<path class="st0" d="M907.3,794.6c-3.3,0-5.9-2.6-5.9-5.9l0,0c0-37.3-30.3-67.5-67.6-67.6c-3.3,0-5.9-2.6-5.9-5.9l0,0
	c0-3.3,2.6-5.9,5.9-5.9c0,0,0,0,0,0l0,0c37.3,0,67.5-30.2,67.5-67.5c0-3.3,2.7-5.9,5.9-5.9l0,0c3.3,0,5.9,2.7,5.9,5.9l0,0
	c0,37.3,30.3,67.5,67.6,67.6c3.3,0,5.9,2.6,5.9,5.9s-2.6,5.9-5.9,5.9c0,0,0,0,0,0l0,0c-37.3,0-67.5,30.3-67.6,67.6
	C913.2,791.9,910.6,794.6,907.3,794.6z"/>
<radialGradient id="SVGID_1_" cx="520.6223" cy="129.6111" r="250.4531" gradientTransform="matrix(1.04 0 0 1.03 86.91 302.4933)" gradientUnits="userSpaceOnUse">
	<stop  offset="0.18" style="stop-color:#679CD3"/>
	<stop  offset="1" style="stop-color:#2974BA"/>
</radialGradient>
<path class="st1" d="M880.4,377.3c33.1,138.6-52.5,277.8-191,310.9s-277.9-52.4-311-191s52.4-277.8,191-310.9l0,0
	C708,153.2,847.2,238.7,880.4,377.3z"/>
<g>
	<defs>
		<path id="SVGID_00000145747229284999338700000013358622018599416483_" d="M880.4,377.3c33.1,138.6-52.5,277.8-191,310.9
			s-277.9-52.4-311-191s52.4-277.8,191-310.9l0,0C708,153.2,847.2,238.7,880.4,377.3z"/>
	</defs>
	<clipPath id="SVGID_00000181779117723435518210000015569286776984892089_">
		<use xlink:href="#SVGID_00000145747229284999338700000013358622018599416483_"  style="overflow:visible;"/>
	</clipPath>
	<g style="clip-path:url(#SVGID_00000181779117723435518210000015569286776984892089_);">
		<path class="st3" d="M491,612.1c38,1.2,69.8-28.6,71.1-66.6c1.2-38-28.6-69.8-66.6-71.1c-0.3,0-0.6,0-0.9,0c-1.1,0-2.3,0-3.4,0
			c0.2-2,0.3-3.9,0.3-5.9c-0.3-38.3-31.6-69-69.8-68.8H370c-10.2,77.2,14.3,155,67.1,212.4H491z"/>
		<path class="st3" d="M883.5,389.2c0.1-0.6,0-1.3-0.3-1.9c-8.3-45-28.8-86.9-59.1-121.1c-41.2-16.5-88.1,3.5-104.6,44.7
			c-0.5,1.2-0.9,2.5-1.4,3.7c-1.7,5.8-2.6,11.7-2.8,17.7c-2.8-0.3-5.6-0.5-8.4-0.5c-40.3-0.1-73.1,32.5-73.2,72.8
			c-0.1,31,19.5,58.8,48.8,69.1c7.2,2.8,15,4.3,22.8,4.2h85.3C824.8,452,856,422.3,883.5,389.2z"/>
	</g>
</g>
<path class="st0" d="M973.7,221.8c-26.5-44-88.3-61.2-174.7-48.3c-29.6,4.2-58.9,10.5-87.5,19c22.7,7.9,44.4,18.7,64.2,32.2
	c10.1-2.2,20.3-4.9,30.1-6.4c15.3-2.4,30.8-3.6,46.4-3.7c30.8-4.4,61.8,7,82.4,30.5l0,0c16.1,26.8,2.5,72.7-37.2,126.1
	c-55.3,68.8-123,126.6-199.7,170.3c-74.9,46.8-158,79-244.9,95.1c-65.8,9.8-112.8,0-128.9-26.7c-16.1-26.7-2.5-72.7,37.3-125.9
	c4.9-6.6,6.1-9.8,11.7-16.5c-2.6-22.8-2.3-45.8,1.1-68.5c-17.9,17.9-34.3,37.2-49.2,57.7C272.7,526.3,258.6,589,285,633
	c28.4,38,74.8,58,121.9,52.5c17.6-0.1,35.2-1.5,52.6-4.2c92.7-16.9,181.4-51.1,261.5-100.9c81.7-46.8,153.9-108.6,212.8-182.1
	C986,328.5,1000.1,265.8,973.7,221.8z"/>
</svg>
