<svg id="图层_1" data-name="图层 1" xmlns="http://www.w3.org/2000/svg" viewBox="0 0 164.01 164.01"><defs><style>.cls-1{fill:#00a9e5;}.cls-2{fill:#353535;}.cls-3{fill:#00bfb3;}.cls-4{fill:#019b8f;}.cls-5{fill:#f9b110;}.cls-6{fill:#fed10a;}</style></defs><path class="cls-1" d="M112.67,62H77.84c.17.83.5,1.67.67,2.33a61.52,61.52,0,0,1,2.16,12.5c.17,1.67.17,3.5.17,5.17s0,3.5-.17,5.16a61.52,61.52,0,0,1-2.16,12.5c-.17.83-.5,1.67-.67,2.33h34.83a20,20,0,0,0,0-40Z"/><path class="cls-2" d="M80.67,87.17c.17-1.66.17-3.5.17-5.16s0-3.5-.17-5.17a61.52,61.52,0,0,0-2.16-12.5c-.17-.83-.5-1.66-.67-2.33H24a68.13,68.13,0,0,0,0,40H77.84c.17-.83.5-1.66.67-2.33A61.52,61.52,0,0,0,80.67,87.17Z"/><path class="cls-3" d="M118.66,108.67H75.34a67,67,0,0,1-4.5,8.49A64.76,64.76,0,0,1,62,128.5c-1.17,1.16-2.33,2.16-3.5,3.33a66.88,66.88,0,0,1-7.66,5.83,65.91,65.91,0,0,0,36.66,11A66.78,66.78,0,0,0,143,119a34,34,0,0,0-24.33-10.33Z"/><path class="cls-4" d="M70.84,117.16a67,67,0,0,0,4.5-8.49H26.52a65.91,65.91,0,0,0,24.49,29,84.69,84.69,0,0,0,7.67-5.83c1.17-1,2.33-2.17,3.5-3.33a66.18,66.18,0,0,0,8.66-11.34Z"/><path class="cls-5" d="M62,35.52c-1.17-1.17-2.33-2.17-3.5-3.33a67,67,0,0,0-7.66-5.84,68.18,68.18,0,0,0-24.5,29H75.17a68.44,68.44,0,0,0-4.49-8.5A52.56,52.56,0,0,0,62,35.52Z"/><path class="cls-6" d="M87.51,15.36a65.9,65.9,0,0,0-36.66,11,86.11,86.11,0,0,1,7.66,5.84c1.17,1,2.33,2.16,3.5,3.33a64.69,64.69,0,0,1,8.83,11.33,67.17,67.17,0,0,1,4.5,8.5h43.32A34,34,0,0,0,143,45,66.78,66.78,0,0,0,87.51,15.36Z"/></svg>