<?xml version="1.0" encoding="UTF-8"?>
<svg id="_图层_1" data-name=" 图层 1" xmlns="http://www.w3.org/2000/svg" viewBox="0 0 235.76 232.9">
  <defs>
    <style>
      .cls-1 {
        fill: #0181fd;
      }

      .cls-2 {
        fill: #fff;
      }

      .cls-3 {
        fill: #ffa005;
      }

      .cls-4 {
        fill: #ced0d2;
      }

      .cls-5 {
        fill: #07c846;
      }
    </style>
  </defs>
  <g>
    <path class="cls-2" d="m2,181.93V12.35c0-5.61,3.44-10.35,7.52-10.35h216.73c4.08,0,7.52,4.74,7.52,10.35v169.58H2Z"/>
    <path class="cls-4" d="m226.25,4c2.94,0,5.52,3.9,5.52,8.35v167.57H4V12.35c0-4.45,2.58-8.35,5.52-8.35h216.73m0-4H9.52C4.28,0,0,5.56,0,12.35v171.57h235.76V12.35c0-6.8-4.28-12.35-9.52-12.35h0Z"/>
  </g>
  <g>
    <path class="cls-1" d="m35.14,58.53c60.75,8.4,90.09-29.3,165.5-20.89l-.02,56.56c-60.75-8.4-90.09,29.3-165.5,21.17l.02-56.83Z"/>
    <path class="cls-3" d="m110.68,22.45c-33.18,10.29-49,14.65-75.53,10.87v18.87s.66.09.66.09c28.13,3.89,49.6-2.58,72.32-9.44,2.74-.83,5.52-1.66,8.36-2.5l-5.81-17.9Z"/>
    <path class="cls-5" d="m199.93,100.38c-28.17-3.9-49.68,2.62-72.44,9.52-2.7.82-5.44,1.65-8.23,2.47l5.8,17.88c33.2-10.3,49.02-14.66,75.56-10.88v-18.89s-.69-.1-.69-.1Z"/>
  </g>
  <path class="cls-1" d="m113.97,154.83c-12.69,2.95-29.54,6.69-47.97,8.52-10.37,1.03-21.25,1.46-32.17.82C22.43,163.5,10.97,161.64,0,158.07v59.5C0,226,5.32,232.9,11.81,232.9h212.13c6.5,0,11.81-6.9,11.81-15.34v-72.11c-42.79-13.23-93.16,2.71-121.79,9.37Z"/>
  <path class="cls-2" d="m214.71,159.03v63.06h-11.97v-39.93l-15.44,27.78h-8.05l-15.71-28.06v40.21h-11.97v-63.06h11.97l19.74,36.1,19.46-36.1h11.97Z"/>
</svg>