<svg xmlns="http://www.w3.org/2000/svg" viewBox="0 0 134.21 63.19"><defs><style>.cls-1{fill:#cdcccc;}.cls-2{fill:#fff;}.cls-3{fill:#dd00a1;}.cls-4{fill:#f9d8d2;}.cls-5{fill:#10110e;}.cls-6{fill:#e5e5e5;}.cls-7{fill:#8accce;opacity:0.2;}.cls-8{fill:#515151;}</style></defs><g id="Layer_2" data-name="Layer 2"><g id="Layer_3" data-name="Layer 3"><path class="cls-1" d="M39.09,30.67a3,3,0,0,0-6,0A2.76,2.76,0,0,0,35,33.22v4.57a15.27,15.27,0,0,0-6.91-7.85c.46-1,.93-1.86,1.38-2.65a65.83,65.83,0,0,1,5.67-7.24c1.13-1.34,2.2-2.6,3.07-3.7,2.44-3.06,5.12-7.58,4.62-10.26a2.56,2.56,0,0,0-1.25-1.81c-3.39-2-8,4.5-12.53,10.77-3,4.14-4.55,10-5.26,13.29a19.86,19.86,0,0,0-4.23-.46,18.63,18.63,0,0,0-6.08,1,85.14,85.14,0,0,1,.33-11c1-9.51.56-15.09-1.29-17A2.43,2.43,0,0,0,10.56,0C5.1.27,5.72,16.58,5.81,18.44c.22,4.46,2,9.88,3.08,12.88a15.44,15.44,0,0,0-5.25,7.81H3.25a3.11,3.11,0,0,0-3.25,3v5.17a3.12,3.12,0,0,0,3.25,3h.66A13.34,13.34,0,0,0,7.2,54.93l-1,.88a1.17,1.17,0,0,0-.13,1.64c3,3.65,7.91,5.74,13.42,5.74s10.44-2.09,13.42-5.74a1.17,1.17,0,0,0-.13-1.64l-1-.88a13.56,13.56,0,0,0,3.29-4.71h.75a3.12,3.12,0,0,0,3.25-3V42.09a2.94,2.94,0,0,0-1.91-2.68V33.22A2.75,2.75,0,0,0,39.09,30.67Z"/><path class="cls-2" d="M14.62,55.74c.92-.61-1.5-.38-1.7-.79a16.49,16.49,0,0,1-2.86-.51c-1.7-.45-5.78-3.19-6.22-5.82S3.84,41,5.68,38a17.21,17.21,0,0,1,4.38-4.7s-3.57-8.49-3.87-14.9S6.39.58,10.57.38s3.57,10.48,2.86,17.43a90.59,90.59,0,0,0-.2,13.88,19.73,19.73,0,0,1,5.5-.92,21.12,21.12,0,0,1,4.9.46s1.33-9.84,5.71-16,9-12.45,12-10.66-.82,8.18-3.47,11.51-7.24,8.33-8.77,11a46.59,46.59,0,0,0-2.65,5.51,14.93,14.93,0,0,1,6.39,6.32C35,43.22,35.16,48.52,34,50.77a8.08,8.08,0,0,1-5.61,4c-1.33.06-6.92,1.45-6.92,1.45Z"/><path class="cls-3" d="M24.41,31.32s3.34-8.71,6.33-13.6,7-8.59,8.26-7.84-2.57,5.32-5.93,9.81a113.44,113.44,0,0,0-7.43,12.38Z"/><path class="cls-3" d="M11,32.81l1-.74s-.14-8.71,0-14,.41-11.9-1.36-11.84-3,5.17-2.31,12.38A87.47,87.47,0,0,0,11,32.81Z"/><circle class="cls-4" cx="8.02" cy="49.54" r="1.94"/><circle class="cls-4" cx="30.95" cy="49.54" r="1.94"/><path class="cls-5" d="M22.7,49.38a.18.18,0,0,0-.25.07s-.58,1-1.42,1.06a2.09,2.09,0,0,1-1.5-.7V48.33c.54-.3,1.41-1.2,1.41-1.51a1.41,1.41,0,0,0-1.49-1.09c-1,0-1.7.65-1.7,1.19s1.1,1.24,1.41,1.44v1.46a1.82,1.82,0,0,1-1.31.69c-.79,0-1.39-1.08-1.4-1.09a.19.19,0,0,0-.25-.08.2.2,0,0,0-.08.26s.71,1.29,1.73,1.29a2.12,2.12,0,0,0,1.51-.73,2.37,2.37,0,0,0,1.58.73h.12a2.49,2.49,0,0,0,1.71-1.26A.18.18,0,0,0,22.7,49.38Z"/><path class="cls-6" d="M10.06,33.32s-2.77-7-3.3-10.66-1-9.77-.3-13.84A50,50,0,0,1,7.68,3.26S6.39,12.75,6.87,16.9,10.06,33.32,10.06,33.32Z"/><path class="cls-6" d="M23.63,31.23s2-10.59,4.91-14.75S35.06,7.27,36.89,6l1.83-1.28s-7.34,7.7-10.18,14S23.63,31.23,23.63,31.23Z"/><path class="cls-5" d="M12,43.23a1.52,1.52,0,1,0,1.51,1.52A1.52,1.52,0,0,0,12,43.23Zm.43,1.41a.41.41,0,0,1-.41-.41.41.41,0,0,1,.82,0A.41.41,0,0,1,12.41,44.64Z"/><path class="cls-5" d="M26.92,43.23a1.52,1.52,0,1,0,1.52,1.52A1.52,1.52,0,0,0,26.92,43.23Zm.43,1.41a.42.42,0,0,1-.41-.41.42.42,0,0,1,.83,0A.42.42,0,0,1,27.35,44.64Z"/><ellipse class="cls-7" cx="19.73" cy="45.32" rx="14.1" ry="10.16"/><path class="cls-2" d="M36.8,39.67V33a2.45,2.45,0,0,0,1.92-2.28,2.65,2.65,0,0,0-5.27,0A2.44,2.44,0,0,0,35.36,33V39.5h-.19c-2-6.94-7.91-11.25-15.62-11.25S5.89,32.52,3.92,39.5H3.25A2.75,2.75,0,0,0,.37,42.09v5.17a2.75,2.75,0,0,0,2.88,2.58h.91a13.11,13.11,0,0,0,3.6,5.09l-1.3,1.16a.79.79,0,0,0-.09,1.12c2.92,3.53,7.71,5.6,13.13,5.6s10.21-2,13.13-5.6a.79.79,0,0,0-.09-1.12l-1.3-1.16a13.34,13.34,0,0,0,3.6-5.09h1a2.75,2.75,0,0,0,2.88-2.58V42.09A2.62,2.62,0,0,0,36.8,39.67ZM19.55,35.62c7.14,0,12.94,4.7,12.94,10.47,0,6.25-6.52,9-12.94,9s-12.94-2.8-12.94-9C6.61,40.32,12.41,35.62,19.55,35.62Z"/><path class="cls-8" d="M37.28,45.53H35.36c0-.3,0-.6,0-.94a19.35,19.35,0,0,0-.38-3.8h.81a1.35,1.35,0,0,1,1.44,1.3Z"/><path class="cls-8" d="M35.84,48.55h-1a16.69,16.69,0,0,0,.43-2.15h2v.86A1.34,1.34,0,0,1,35.84,48.55Z"/><path class="cls-8" d="M19.55,61.48c-4.8,0-9.06-1.73-11.75-4.79l1.35-1.2a17.86,17.86,0,0,0,10.4,3,17.89,17.89,0,0,0,10.4-3l1.34,1.2C28.61,59.75,24.34,61.48,19.55,61.48Z"/><path class="cls-8" d="M3.25,40.79h.86a19.66,19.66,0,0,0-.38,3.8,6.18,6.18,0,0,0,0,.94H1.86V42.09A1.28,1.28,0,0,1,3.25,40.79Z"/><path d="M19.55,34.76a17.4,17.4,0,0,0-4.8.69V30.24a17.14,17.14,0,0,1,4.8-.65,17.12,17.12,0,0,1,4.79.65v5.25A16,16,0,0,0,19.55,34.76Z"/><path class="cls-8" d="M13.8,30.54V35.8C9,37.56,5.65,41.53,5.65,46.09,5.65,52,11.26,56,19.55,56s13.9-4,13.9-9.91c0-4.56-3.36-8.53-8.15-10.29V30.54c5.61,2,9.11,7.19,9.11,14.09,0,7.76-5.95,13-14.86,13s-14.86-5.21-14.86-13C4.69,37.73,8.19,32.56,13.8,30.54Z"/><path class="cls-8" d="M1.81,46.4h2a15.15,15.15,0,0,0,.43,2.15h-1a1.35,1.35,0,0,1-1.44-1.29Z"/><ellipse class="cls-8" cx="36.08" cy="30.67" rx="1.2" ry="1.08"/><path d="M63.74,36.78H57.92v-5.3a1.4,1.4,0,0,0-1.4-1.4h-.05a1.4,1.4,0,0,0-1.4,1.4v5.3h-1.7A1.36,1.36,0,0,0,52,38.14v0a1.36,1.36,0,0,0,1.36,1.36h1.7V52.19a6.51,6.51,0,0,0,1.55,4.61,5.81,5.81,0,0,0,4.45,1.7,8.11,8.11,0,0,0,3.4-.73,1,1,0,0,0,.54-.89V56a1,1,0,0,0-1.45-.89,5.53,5.53,0,0,1-2.49.59,2.93,2.93,0,0,1-2.36-.85,4.19,4.19,0,0,1-.79-2.76V39.52h5.82a1.34,1.34,0,0,0,1.35-1.35v0A1.34,1.34,0,0,0,63.74,36.78Z"/><path d="M78.29,36.32A8.23,8.23,0,0,0,75,37a9.19,9.19,0,0,0-2.6,1.72,9.91,9.91,0,0,0-1,1.12V38.19a1.41,1.41,0,0,0-1.41-1.41h0a1.41,1.41,0,0,0-1.41,1.41V56.74a1.41,1.41,0,0,0,1.41,1.41h0a1.41,1.41,0,0,0,1.41-1.41V47.12a8.36,8.36,0,0,1,.49-2.66,9.61,9.61,0,0,1,1.4-2.65,8.06,8.06,0,0,1,2.17-2,5,5,0,0,1,2.73-.74h.19a1,1,0,0,0,1-1v-.77A1,1,0,0,0,78.29,36.32Z"/><path d="M84.11,36.78h0a1.42,1.42,0,0,0-1.42,1.42V56.76a1.39,1.39,0,0,0,1.38,1.39h.08a1.39,1.39,0,0,0,1.39-1.39V38.2A1.43,1.43,0,0,0,84.11,36.78Z"/><path d="M106.3,39.1A7.84,7.84,0,0,0,103.41,37a9.82,9.82,0,0,0-3.87-.72,8.82,8.82,0,0,0-3.46.64,9,9,0,0,0-2.58,1.61,8.15,8.15,0,0,0-.72.72v-1.1a1.41,1.41,0,0,0-1.41-1.41h0a1.41,1.41,0,0,0-1.41,1.41V56.75a1.4,1.4,0,0,0,1.4,1.4h.06a1.4,1.4,0,0,0,1.4-1.4V46.42a7.85,7.85,0,0,1,.52-2.89,7.44,7.44,0,0,1,1.45-2.34,6.55,6.55,0,0,1,2.11-1.55,6.15,6.15,0,0,1,2.58-.55,7.07,7.07,0,0,1,2.8.52,5.52,5.52,0,0,1,2,1.4,6,6,0,0,1,1.18,2.22,10.27,10.27,0,0,1,.42,3V56.77a1.38,1.38,0,0,0,1.38,1.38h.1a1.37,1.37,0,0,0,1.37-1.38V46.19a12.33,12.33,0,0,0-.59-4A8.87,8.87,0,0,0,106.3,39.1Z"/><path d="M133.43,43.17a10.63,10.63,0,0,0-2.27-3.55,11.5,11.5,0,0,0-12.57-2.38,10.74,10.74,0,0,0-5.73,6,11.68,11.68,0,0,0-.78,4.29,11.53,11.53,0,0,0,.78,4.24,10.75,10.75,0,0,0,2.27,3.53,11,11,0,0,0,8,3.3,11.2,11.2,0,0,0,4.55-.9,10.62,10.62,0,0,0,3.5-2.43,11,11,0,0,0,2.24-3.56,11.81,11.81,0,0,0,.78-4.33A11.61,11.61,0,0,0,133.43,43.17ZM123.18,55.84a8.15,8.15,0,0,1-3.33-.66,7.94,7.94,0,0,1-2.61-1.79,8,8,0,0,1-1.71-2.66,8.81,8.81,0,0,1-.6-3.3,9.05,9.05,0,0,1,.59-3.25,8.11,8.11,0,0,1,1.67-2.65,7.9,7.9,0,0,1,2.58-1.79,8.79,8.79,0,0,1,6.66,0,7.88,7.88,0,0,1,2.62,1.79,8.27,8.27,0,0,1,1.71,2.65,9.31,9.31,0,0,1,0,6.55,8,8,0,0,1-1.67,2.66,7.94,7.94,0,0,1-2.58,1.78A8.16,8.16,0,0,1,123.18,55.84Z"/><circle cx="84.13" cy="32.24" r="1.62"/></g></g></svg>