<?xml version="1.0" encoding="UTF-8"?>
<svg xmlns="http://www.w3.org/2000/svg" xmlns:xlink="http://www.w3.org/1999/xlink" width="140px" height="200px" viewBox="0 0 140 199" version="1.1">
<defs>
<filter id="alpha" filterUnits="objectBoundingBox" x="0%" y="0%" width="100%" height="100%">
  <feColorMatrix type="matrix" in="SourceGraphic" values="0 0 0 0 1 0 0 0 0 1 0 0 0 0 1 0 0 0 1 0"/>
</filter>
<mask id="mask0">
  <g filter="url(#alpha)">
<rect x="0" y="0" width="140" height="199" style="fill:rgb(0%,0%,0%);fill-opacity:0.2;stroke:none;"/>
  </g>
</mask>
<clipPath id="clip1">
  <rect x="0" y="0" width="140" height="199"/>
</clipPath>
<g id="surface5" clip-path="url(#clip1)">
<path style=" stroke:none;fill-rule:nonzero;fill:rgb(54.11765%,80.000001%,80.784315%);fill-opacity:1;" d="M 100.769531 134.605469 C 100.769531 117.941406 81.964844 104.429688 58.769531 104.429688 C 35.574219 104.429688 16.769531 117.941406 16.769531 134.605469 C 16.769531 151.273438 35.574219 164.785156 58.769531 164.785156 C 81.964844 164.785156 100.769531 151.273438 100.769531 134.605469 Z M 100.769531 134.605469 "/>
</g>
</defs>
<g id="surface1">
<path style=" stroke:none;fill-rule:nonzero;fill:rgb(80.392158%,80.000001%,80.000001%);fill-opacity:1;" d="M 116.4375 91.09375 C 116.4375 86.171875 112.4375 82.183594 107.503906 82.183594 C 102.566406 82.183594 98.566406 86.171875 98.566406 91.09375 C 98.660156 94.566406 100.941406 97.601562 104.253906 98.667969 L 104.253906 112.242188 C 100.359375 102.296875 93.070312 94.039062 83.671875 88.925781 C 85.042969 85.957031 86.441406 83.402344 87.78125 81.054688 C 92.902344 73.503906 98.546875 66.316406 104.671875 59.550781 C 108.039062 55.570312 111.226562 51.828125 113.816406 48.5625 C 121.085938 39.472656 129.066406 26.046875 127.578125 18.089844 C 127.210938 15.828125 125.84375 13.855469 123.855469 12.710938 C 113.757812 6.773438 100.027344 26.078125 86.53125 44.699219 C 77.597656 56.996094 72.980469 74.402344 70.863281 84.175781 C 66.726562 83.269531 62.5 82.8125 58.265625 82.808594 C 52.101562 82.789062 45.984375 83.792969 40.152344 85.777344 C 39.773438 74.878906 40.101562 63.964844 41.136719 53.105469 C 44.113281 24.859375 42.804688 8.285156 37.292969 2.613281 C 35.859375 0.886719 33.703125 -0.0820312 31.457031 0 C 15.191406 0.800781 17.039062 49.246094 17.304688 54.769531 C 17.960938 68.015625 23.265625 84.113281 26.480469 93.023438 C 18.972656 98.945312 13.507812 107.054688 10.84375 116.222656 L 9.679688 116.222656 C 7.207031 116.109375 4.792969 116.988281 2.976562 118.660156 C 1.15625 120.335938 0.0859375 122.664062 0 125.132812 L 0 140.488281 C 0.09375 142.953125 1.167969 145.277344 2.984375 146.949219 C 4.800781 148.621094 7.210938 149.503906 9.679688 149.398438 L 11.648438 149.398438 C 13.886719 154.628906 17.226562 159.320312 21.445312 163.148438 L 18.46875 165.765625 C 17.023438 167.007812 16.851562 169.179688 18.082031 170.636719 C 27.015625 181.476562 41.640625 187.683594 58.054688 187.683594 C 74.46875 187.683594 89.152344 181.476562 98.03125 170.636719 C 99.261719 169.179688 99.089844 167.007812 97.640625 165.765625 L 94.664062 163.148438 C 98.894531 159.238281 102.238281 154.46875 104.464844 149.160156 L 106.699219 149.160156 C 109.167969 149.265625 111.578125 148.382812 113.394531 146.710938 C 115.210938 145.039062 116.285156 142.714844 116.378906 140.25 L 116.378906 125.011719 C 116.289062 121.453125 114.035156 118.300781 110.6875 117.054688 L 110.6875 98.667969 C 114.03125 97.628906 116.34375 94.585938 116.4375 91.09375 Z M 116.4375 91.09375 "/>
<path style=" stroke:none;fill-rule:nonzero;fill:rgb(100%,100%,100%);fill-opacity:1;" d="M 43.550781 165.554688 C 46.289062 163.746094 39.082031 164.425781 38.484375 163.210938 C 35.605469 162.957031 32.753906 162.449219 29.964844 161.695312 C 24.902344 160.359375 12.75 152.21875 11.4375 144.410156 C 10.128906 136.597656 11.4375 121.777344 16.917969 112.867188 C 20.351562 107.4375 24.777344 102.703125 29.964844 98.90625 C 29.964844 98.90625 19.332031 73.6875 18.4375 54.652344 C 17.542969 35.613281 19.035156 1.722656 31.484375 1.128906 C 43.9375 0.535156 42.121094 32.253906 40.003906 52.898438 C 38.75 66.605469 38.550781 80.386719 39.410156 94.125 C 44.710938 92.445312 50.226562 91.523438 55.792969 91.390625 C 60.695312 91.277344 65.59375 91.738281 70.386719 92.757812 C 70.386719 92.757812 74.347656 63.53125 87.394531 45.234375 C 100.441406 26.9375 114.203125 8.257812 123.140625 13.574219 C 132.078125 18.890625 120.699219 37.871094 112.804688 47.761719 C 104.910156 57.652344 91.238281 72.5 86.679688 80.433594 C 83.691406 85.707031 81.054688 91.175781 78.789062 96.796875 C 86.914062 100.957031 93.5625 107.511719 97.820312 115.570312 C 104.253906 128.371094 104.730469 144.113281 101.277344 150.792969 C 97.765625 157.042969 91.636719 161.398438 84.566406 162.675781 C 80.605469 162.851562 63.953125 166.980469 63.953125 166.980469 Z M 43.550781 165.554688 "/>
<path style=" stroke:none;fill-rule:nonzero;fill:rgb(86.666667%,0%,63.137257%);fill-opacity:1;" d="M 72.710938 93.023438 C 72.710938 93.023438 82.660156 67.15625 91.566406 52.632812 C 100.472656 38.105469 112.417969 27.117188 116.171875 29.34375 C 119.921875 31.574219 108.515625 45.144531 98.507812 58.480469 C 90.351562 70.257812 82.960938 82.539062 76.375 95.253906 Z M 72.710938 93.023438 "/>
<path style=" stroke:none;fill-rule:nonzero;fill:rgb(86.666667%,0%,63.137257%);fill-opacity:1;" d="M 32.765625 97.449219 L 35.746094 95.253906 C 35.746094 95.253906 35.328125 69.382812 35.746094 53.671875 C 36.160156 37.957031 36.964844 18.324219 31.695312 18.503906 C 26.421875 18.683594 22.757812 33.859375 24.8125 55.273438 C 26.292969 69.527344 28.953125 83.632812 32.765625 97.449219 Z M 32.765625 97.449219 "/>
<path style=" stroke:none;fill-rule:nonzero;fill:rgb(97.647059%,84.705883%,82.352942%);fill-opacity:1;" d="M 29.667969 147.140625 C 29.667969 143.957031 27.082031 141.378906 23.890625 141.378906 C 20.699219 141.378906 18.109375 143.957031 18.109375 147.140625 C 18.109375 150.324219 20.699219 152.902344 23.890625 152.902344 C 27.082031 152.902344 29.667969 150.324219 29.667969 147.140625 Z M 29.667969 147.140625 "/>
<path style=" stroke:none;fill-rule:nonzero;fill:rgb(97.647059%,84.705883%,82.352942%);fill-opacity:1;" d="M 97.96875 147.140625 C 97.96875 143.957031 95.382812 141.378906 92.191406 141.378906 C 89 141.378906 86.414062 143.957031 86.414062 147.140625 C 86.414062 150.324219 89 152.902344 92.191406 152.902344 C 95.382812 152.902344 97.96875 150.324219 97.96875 147.140625 Z M 97.96875 147.140625 "/>
<path style=" stroke:none;fill-rule:nonzero;fill:rgb(6.27451%,6.666667%,5.490196%);fill-opacity:1;" d="M 67.617188 146.664062 C 66.871094 146.875 65.144531 149.84375 62.640625 150.023438 C 60.929688 149.972656 59.3125 149.21875 58.175781 147.941406 L 58.175781 143.546875 C 59.78125 142.65625 62.375 139.984375 62.375 139.0625 C 61.90625 137.035156 60.015625 135.652344 57.9375 135.824219 C 54.957031 135.824219 52.871094 137.753906 52.871094 139.359375 C 52.871094 140.964844 56.148438 143.042969 57.074219 143.636719 L 57.074219 147.972656 C 56.121094 149.175781 54.703125 149.921875 53.171875 150.023438 C 50.816406 150.023438 49.03125 146.816406 49 146.785156 C 48.015625 147.320312 50.132812 151.152344 53.171875 151.152344 C 54.90625 151.074219 56.53125 150.292969 57.667969 148.984375 C 58.90625 150.273438 60.585938 151.050781 62.375 151.152344 L 62.730469 151.152344 C 64.90625 150.722656 66.773438 149.351562 67.824219 147.410156 Z M 67.617188 146.664062 "/>
<path style=" stroke:none;fill-rule:nonzero;fill:rgb(89.803922%,89.803922%,89.803922%);fill-opacity:1;" d="M 29.964844 98.964844 C 29.964844 98.964844 21.714844 78.175781 20.136719 67.304688 C 18.558594 56.433594 17.15625 38.285156 19.242188 26.195312 C 20.136719 20.628906 21.351562 15.113281 22.875 9.683594 C 22.875 9.683594 19.035156 37.871094 20.464844 50.195312 C 21.894531 62.523438 29.964844 98.964844 29.964844 98.964844 Z M 29.964844 98.964844 "/>
<path style=" stroke:none;fill-rule:nonzero;fill:rgb(89.803922%,89.803922%,89.803922%);fill-opacity:1;" d="M 70.386719 92.757812 C 70.386719 92.757812 76.34375 61.304688 85.011719 48.949219 C 93.679688 36.59375 104.433594 21.59375 109.886719 17.820312 L 115.335938 14.019531 C 115.335938 14.019531 93.472656 36.890625 85.011719 55.601562 C 76.554688 74.3125 70.386719 92.757812 70.386719 92.757812 Z M 70.386719 92.757812 "/>
<path style=" stroke:none;fill-rule:nonzero;fill:rgb(6.27451%,6.666667%,5.490196%);fill-opacity:1;" d="M 35.746094 128.398438 C 33.910156 128.386719 32.25 129.480469 31.539062 131.164062 C 30.832031 132.851562 31.210938 134.796875 32.503906 136.097656 C 33.796875 137.394531 35.746094 137.785156 37.441406 137.089844 C 39.136719 136.390625 40.242188 134.742188 40.242188 132.914062 C 40.242188 130.433594 38.234375 128.414062 35.746094 128.398438 Z M 37.027344 132.585938 C 36.351562 132.585938 35.804688 132.042969 35.804688 131.371094 C 35.804688 130.695312 36.351562 130.152344 37.027344 130.152344 C 37.699219 130.152344 38.246094 130.695312 38.246094 131.371094 C 38.246094 131.703125 38.109375 132.023438 37.867188 132.253906 C 37.625 132.484375 37.300781 132.605469 36.964844 132.585938 Z M 37.027344 132.585938 "/>
<path style=" stroke:none;fill-rule:nonzero;fill:rgb(6.27451%,6.666667%,5.490196%);fill-opacity:1;" d="M 80.1875 128.398438 C 77.6875 128.398438 75.660156 130.421875 75.660156 132.914062 C 75.660156 135.40625 77.6875 137.429688 80.1875 137.429688 C 82.6875 137.429688 84.714844 135.40625 84.714844 132.914062 C 84.714844 130.421875 82.6875 128.398438 80.1875 128.398438 Z M 81.46875 132.585938 C 80.800781 132.570312 80.261719 132.035156 80.246094 131.371094 C 80.339844 130.761719 80.867188 130.3125 81.484375 130.3125 C 82.101562 130.3125 82.625 130.761719 82.71875 131.371094 C 82.703125 132.046875 82.148438 132.585938 81.46875 132.585938 Z M 81.46875 132.585938 "/>
<use xlink:href="#surface5" mask="url(#mask0)"/>
<path style=" stroke:none;fill-rule:nonzero;fill:rgb(100%,100%,100%);fill-opacity:1;" d="M 109.617188 117.824219 L 109.617188 98.015625 C 112.839844 97.304688 115.183594 94.53125 115.335938 91.242188 C 114.90625 87.242188 111.523438 84.207031 107.488281 84.207031 C 103.453125 84.207031 100.066406 87.242188 99.636719 91.242188 C 99.777344 94.523438 102.109375 97.304688 105.328125 98.015625 L 105.328125 117.320312 L 104.761719 117.320312 C 98.804688 96.707031 81.199219 83.90625 58.234375 83.90625 C 35.269531 83.90625 17.542969 96.589844 11.675781 117.320312 L 9.679688 117.320312 C 5.1875 117.101562 1.359375 120.535156 1.101562 125.011719 L 1.101562 140.371094 C 1.375 144.835938 5.199219 148.253906 9.679688 148.03125 L 12.390625 148.03125 C 14.695312 153.859375 18.375 159.042969 23.113281 163.148438 L 19.242188 166.59375 C 18.761719 167 18.460938 167.578125 18.410156 168.203125 C 18.363281 168.828125 18.5625 169.445312 18.972656 169.921875 C 27.671875 180.40625 41.941406 186.554688 58.085938 186.554688 C 74.230469 186.554688 88.496094 180.613281 97.195312 169.921875 C 97.605469 169.445312 97.808594 168.828125 97.757812 168.203125 C 97.707031 167.578125 97.410156 167 96.925781 166.59375 L 93.054688 163.148438 C 97.777344 159.027344 101.453125 153.84375 103.777344 148.03125 L 106.757812 148.03125 C 111.238281 148.253906 115.0625 144.835938 115.335938 140.371094 L 115.335938 125.011719 C 115.199219 121.632812 112.886719 118.726562 109.617188 117.824219 Z M 58.234375 105.796875 C 79.503906 105.796875 96.777344 119.757812 96.777344 136.894531 C 96.777344 155.457031 77.359375 163.625 58.234375 163.625 C 39.109375 163.625 19.6875 155.308594 19.6875 136.894531 C 19.6875 119.757812 36.964844 105.796875 58.234375 105.796875 Z M 58.234375 105.796875 "/>
<path style=" stroke:none;fill-rule:nonzero;fill:rgb(31.764707%,31.764707%,31.764707%);fill-opacity:1;" d="M 111.046875 135.230469 L 105.328125 135.230469 C 105.328125 134.339844 105.328125 133.449219 105.328125 132.4375 C 105.324219 128.648438 104.945312 124.867188 104.195312 121.152344 L 106.609375 121.152344 C 107.695312 121.078125 108.765625 121.449219 109.574219 122.175781 C 110.382812 122.90625 110.859375 123.929688 110.898438 125.011719 Z M 111.046875 135.230469 "/>
<path style=" stroke:none;fill-rule:nonzero;fill:rgb(31.764707%,31.764707%,31.764707%);fill-opacity:1;" d="M 106.757812 144.199219 L 103.777344 144.199219 C 104.34375 142.101562 104.773438 139.96875 105.058594 137.816406 L 111.015625 137.816406 L 111.015625 140.371094 C 110.980469 141.445312 110.503906 142.464844 109.703125 143.183594 C 108.898438 143.90625 107.835938 144.273438 106.757812 144.199219 Z M 106.757812 144.199219 "/>
<path style=" stroke:none;fill-rule:nonzero;fill:rgb(31.764707%,31.764707%,31.764707%);fill-opacity:1;" d="M 58.234375 182.605469 C 43.9375 182.605469 31.246094 177.464844 23.234375 168.378906 L 27.253906 164.8125 C 36.410156 170.90625 47.230469 174.019531 58.234375 173.722656 C 69.234375 174.015625 80.058594 170.902344 89.210938 164.8125 L 93.203125 168.378906 C 85.222656 177.464844 72.503906 182.605469 58.234375 182.605469 Z M 58.234375 182.605469 "/>
<path style=" stroke:none;fill-rule:nonzero;fill:rgb(31.764707%,31.764707%,31.764707%);fill-opacity:1;" d="M 9.679688 121.152344 L 12.242188 121.152344 C 11.5 124.867188 11.121094 128.648438 11.109375 132.4375 C 11.039062 133.367188 11.039062 134.300781 11.109375 135.230469 L 5.539062 135.230469 L 5.539062 125.011719 C 5.519531 123.9375 5.957031 122.898438 6.75 122.164062 C 7.539062 121.425781 8.605469 121.058594 9.679688 121.152344 Z M 9.679688 121.152344 "/>
<path style=" stroke:none;fill-rule:nonzero;fill:rgb(0%,0%,0%);fill-opacity:1;" d="M 58.234375 103.242188 C 53.394531 103.257812 48.582031 103.945312 43.9375 105.292969 L 43.9375 89.816406 C 48.585938 88.503906 53.402344 87.851562 58.234375 87.886719 C 63.058594 87.855469 67.863281 88.503906 72.503906 89.816406 L 72.503906 105.410156 C 67.882812 103.96875 63.074219 103.238281 58.234375 103.242188 Z M 58.234375 103.242188 "/>
<path style=" stroke:none;fill-rule:nonzero;fill:rgb(31.764707%,31.764707%,31.764707%);fill-opacity:1;" d="M 41.105469 90.707031 L 41.105469 106.332031 C 26.808594 111.558594 16.828125 123.351562 16.828125 136.894531 C 16.828125 154.449219 33.539062 166.328125 58.234375 166.328125 C 82.925781 166.328125 99.636719 154.449219 99.636719 136.894531 C 99.636719 123.351562 89.628906 111.558594 75.363281 106.332031 L 75.363281 90.707031 C 92.074219 96.648438 102.496094 112.0625 102.496094 132.558594 C 102.496094 155.605469 84.773438 171.167969 58.234375 171.167969 C 31.695312 171.167969 13.96875 155.695312 13.96875 132.558594 C 13.96875 112.0625 24.394531 96.707031 41.105469 90.707031 Z M 41.105469 90.707031 "/>
<path style=" stroke:none;fill-rule:nonzero;fill:rgb(31.764707%,31.764707%,31.764707%);fill-opacity:1;" d="M 5.390625 137.816406 L 11.347656 137.816406 C 11.621094 139.972656 12.046875 142.105469 12.628906 144.199219 L 9.652344 144.199219 C 8.570312 144.273438 7.503906 143.90625 6.695312 143.1875 C 5.886719 142.464844 5.40625 141.449219 5.363281 140.371094 Z M 5.390625 137.816406 "/>
<path style=" stroke:none;fill-rule:nonzero;fill:rgb(31.764707%,31.764707%,31.764707%);fill-opacity:1;" d="M 111.046875 91.09375 C 111.046875 89.324219 109.445312 87.886719 107.472656 87.886719 C 105.5 87.886719 103.898438 89.324219 103.898438 91.09375 C 103.898438 92.867188 105.5 94.300781 107.472656 94.300781 C 109.445312 94.300781 111.046875 92.867188 111.046875 91.09375 Z M 111.046875 91.09375 "/>
</g>
</svg>
