<?xml version="1.0" standalone="no"?><!DOCTYPE svg PUBLIC "-//W3C//DTD SVG 1.1//EN" "http://www.w3.org/Graphics/SVG/1.1/DTD/svg11.dtd"><svg t="1651133051330" class="icon" viewBox="0 0 1024 1024" version="1.1" xmlns="http://www.w3.org/2000/svg" p-id="1302" width="128" height="128" xmlns:xlink="http://www.w3.org/1999/xlink"><defs><style type="text/css">@font-face { font-family: feedback-iconfont; src: url("//at.alicdn.com/t/font_1031158_u69w8yhxdu.woff2?t=1630033759944") format("woff2"), url("//at.alicdn.com/t/font_1031158_u69w8yhxdu.woff?t=1630033759944") format("woff"), url("//at.alicdn.com/t/font_1031158_u69w8yhxdu.ttf?t=1630033759944") format("truetype"); }
</style></defs><path d="M706.432 374.4c-75.946667 18.517333-75.946667 116.224 0 134.954667a666.517333 666.517333 0 0 1-25.877333 77.141333c-86.613333-20.970667-125.226667 58.026667-83.349334 109.056-5.738667 30.442667-35.690667 37.034667-57.450666 51.413333-44.544-53.482667-148.821333-35.370667-141.013334 51.669334h-90.133333c9.450667-81.066667-95.658667-110.912-134.250667-51.669334-29.141333-7.381333-49.877333-23.04-64.426666-44.821333 39.402667-55.978667 8.597333-136-83.349334-115.626667C17.130667 562.005333 7.893333 536.277333 1.130667 509.333333c72.853333-11.52 72.853333-123.413333 0-134.954666 6.762667-27.136 16-52.864 25.450666-77.354667 87.018667 21.205333 125.610667-58.24 83.328-109.034667 6.357333-30.656 36.117333-36.821333 57.898667-51.2C212.138667 190.293333 316.202667 171.946667 308.608 85.333333h90.112c-9.429333 80.853333 95.850667 110.677333 134.442667 51.434667 28.757333 7.616 49.706667 23.04 64.042666 44.650667-38.592 55.957333-8.618667 135.978667 83.349334 115.626666a656.490667 656.490667 0 0 1 25.877333 77.333334z m-352.661333 201.386667c73.472 0 133.632-60.053333 133.632-133.909334 0-74.069333-60.16-133.909333-133.632-133.909333a133.653333 133.653333 0 0 0-133.632 133.909333c0 73.856 59.733333 133.930667 133.632 133.930667z m669.781333 135.808c-41.664 5.141333-47.402667 56.768-8.618667 71.594666-5.525333 13.589333-11.882667 26.538667-18.261333 38.890667-44.757333-16.277333-69.781333 23.232-50.901333 52.864-5.333333 15.850667-21.333333 17.066667-33.877334 23.466667-20.117333-30.869333-76.586667-27.584-77.994666 18.901333a1126.613333 1126.613333 0 0 0-47.637334-5.333333c10.069333-42.794667-43.733333-65.002667-68.138666-36.202667-14.570667-5.76-24.426667-15.232-30.592-27.584 23.808-27.157333 12.736-71.573333-37.333334-66.645333a316.032 316.032 0 0 1-8.64-42.176c38.997333-1.429333 45.973333-61.098667 8.213334-71.808 5.333333-13.781333 11.690667-26.752 18.261333-39.082667 44.949333 16.469333 70.186667-23.04 51.114667-52.693333 5.12-15.616 20.928-17.258667 33.856-23.829334 20.117333 31.466667 76.586667 27.968 77.397333-18.133333 16.213333 1.877333 32 3.52 47.829333 5.568-10.453333 42.581333 44.138667 64.426667 67.946667 35.584a59.52 59.52 0 0 1 31.616 27.797333c-24.64 26.944-13.12 71.36 36.736 66.432 3.904 13.376 6.570667 27.584 9.024 42.389334z m-199.509333 84.757333c39.189333 4.522667 74.709333-23.466667 78.613333-62.549333 5.333333-39.509333-23.189333-74.666667-62.208-79.189334-39.189333-4.736-73.877333 23.466667-79.018667 62.336-4.309333 39.296 23.402667 74.88 62.613334 79.402667z" fill="#2c2c2c" p-id="1303"></path></svg>
