<?xml version="1.0" encoding="UTF-8"?>
<svg xmlns="http://www.w3.org/2000/svg" id="Layer_1" data-name="Layer 1" viewBox="0 0 789.1 195.64">
  <defs>
    <style>.cls-1{fill:#003545;}</style>
  </defs>
  <title>MDB-HLogo_RGB</title>
  <path class="cls-1" d="M378.08,70l18.52,71.5h-14L370.26,90l-23.17,51.5H335.3l-23.07-51.2-12.68,51.2H285.89L304.21,70h12.08l24.95,55.36L366.1,70Z" transform="translate(0 -3.38)"></path>
  <path class="cls-1" d="M449.27,97.64V89.32h13.47v52.19H449.27v-8.42c-3.56,6-10.89,9.51-19.8,9.51-18.62,0-29-13.08-29-28.23,0-14.55,9.9-26.24,27-26.24C437.29,88.13,445.41,91.5,449.27,97.64Zm-34.46,17.43c0,9.6,6,17.82,17.72,17.82,11.29,0,17.43-8,17.43-17.53s-6.33-17.62-18-17.62C420.65,97.74,414.81,105.86,414.81,115.07Z" transform="translate(0 -3.38)"></path>
  <path class="cls-1" d="M493.13,141.51H479.66V89.32h13.47V101c3.56-8,10.79-12.87,18.81-12.87a24.2,24.2,0,0,1,8.42,1.39l-2.87,9.9a29.66,29.66,0,0,0-7.13-1c-9.71,0-17.23,7.33-17.23,18.12Z" transform="translate(0 -3.38)"></path>
  <path class="cls-1" d="M527.09,75.55a6.86,6.86,0,0,1,7.23-7,7.1,7.1,0,0,1,7.33,7.23c0,3.47-2.38,6.93-7.33,6.93A6.93,6.93,0,0,1,527.09,75.55Zm.59,13.77h13.47v38.13c0,2.37.5,4.06,2.48,4.06a14.37,14.37,0,0,0,2.57-.3l2.08,9.8a23.72,23.72,0,0,1-8.91,1.59c-5.65,0-11.69-1.69-11.69-14.46Z" transform="translate(0 -3.38)"></path>
  <path class="cls-1" d="M601.36,97.64V89.32h13.46v52.19H601.36v-8.42c-3.57,6-10.9,9.51-19.81,9.51-18.62,0-29-13.08-29-28.23,0-14.55,9.91-26.24,27-26.24C589.37,88.13,597.49,91.5,601.36,97.64Zm-34.47,17.43c0,9.6,6,17.82,17.73,17.82,11.29,0,17.43-8,17.43-17.53s-6.34-17.62-18-17.62C572.74,97.74,566.89,105.86,566.89,115.07Z" transform="translate(0 -3.38)"></path>
  <path class="cls-1" d="M635.51,70H667.8c27.13,0,40.7,14.95,40.5,35.75.2,21.59-14.76,35.75-38.13,35.75H635.51Zm8.91,6.34v58.92H669c21.59,0,29.81-14.56,29.81-29.71,0-17.13-10.3-29.21-29.81-29.21Z" transform="translate(0 -3.38)"></path>
  <path class="cls-1" d="M763.35,141.51h-41V70h36.94c14.16,0,27.63,2.67,27.43,18.52,0,11.19-6.93,14.26-14.26,15.45,10.4.89,16.64,7.52,16.64,18.22C789.19,138.24,775.13,141.51,763.35,141.51Zm-3.07-40.31c14.16,0,17.33-5.44,17.33-12.38,0-10.39-6.34-12.77-17.33-12.77H730.87V101.2Zm.39,6h-29.8v28.23H762c8.72,0,17.93-2.88,17.93-13.87C779.89,108.93,769.29,107.24,760.67,107.24Z" transform="translate(0 -3.38)"></path>
  <path class="cls-1" d="M299.2,4.34a4.35,4.35,0,0,0-2.92-1c-2.9,0-6.65,2-8.66,3-.35.19-.62.33-.81.41A27.32,27.32,0,0,1,276,9.53c-3.86.12-7.19.35-11.5.8C238.82,13,227.43,32.6,216.42,51.6c-6,10.32-12.18,21-20.67,29.28a54.92,54.92,0,0,1-5.59,4.74c-8.78,6.54-19.81,11.17-28.43,14.47-8.26,3.15-17.28,6-26,8.74-8,2.51-15.51,4.89-22.44,7.46-3.13,1.16-5.79,2-8.13,2.83-6.31,2.1-10.87,3.62-17.51,8.17-2.59,1.77-5.19,3.69-7,5.14A73.46,73.46,0,0,0,66.8,147.05a86.62,86.62,0,0,1-11.6,14c-1.4,1.37-3.89,2-7.62,2-4.37,0-9.67-.9-15.28-1.85-5.77-1-11.75-2-16.87-2-4.17,0-7.35.67-9.74,2.06,0,0-4,2.34-5.69,5.36l1.66.75a34.71,34.71,0,0,1,7.1,5.07,35.39,35.39,0,0,0,7.37,5.25,6.61,6.61,0,0,1,2.27,1.51c-.7,1-1.73,2.35-2.8,3.76-5.92,7.74-9.37,12.63-7.39,15.29a6.09,6.09,0,0,0,3,.71c12.9,0,19.82-3.36,28.59-7.6,2.54-1.23,5.16-2.5,8.16-3.8,5.12-2.22,10.64-5.76,16.48-9.52,7.74-5,15.74-10.11,23.49-12.6a64,64,0,0,1,19.71-2.77c8.23,0,16.83,1.1,25.15,2.17,6.21.79,12.63,1.61,18.93,2,2.45.15,4.72.22,6.92.22a77.2,77.2,0,0,0,8.83-.47l.7-.24c4.42-2.72,6.49-8.55,8.5-14.18,1.29-3.63,2.37-6.89,4.05-9a2.79,2.79,0,0,1,.34-.28.4.4,0,0,1,.5.09s0,.05,0,.15c-1.06,22.06-9.9,36.05-18.88,48.49l-6,6.43s8.39,0,13.16-1.84c17.42-5.21,30.58-16.69,40.15-35a149.42,149.42,0,0,0,6.32-14.44c.16-.41,1.68-1.17,1.53.95,0,.63-.09,1.32-.14,2h0c0,.43-.06.87-.08,1.31-.25,3-1,9.57-1,9.57l5.38-2.88c13-8.22,23-24.74,30.56-50.47,3.16-10.72,5.47-21.37,7.51-30.76,2.44-11.23,4.55-20.93,7-24.68,3.78-5.89,9.55-9.87,15.13-13.73l2.28-1.58c7-4.93,14-10.62,15.54-21.22l0-.24C301.22,7.29,300.27,5.27,299.2,4.34Z" transform="translate(0 -3.38)"></path>
</svg>