<?xml version="1.0" encoding="UTF-8"?>
<svg id="_图层_1" data-name=" 图层 1" xmlns="http://www.w3.org/2000/svg" viewBox="0 0 235.76 232.9">
  <defs>
    <style>
      .cls-1 {
        fill: #0181fd;
      }

      .cls-2 {
        fill: #fff;
      }

      .cls-3 {
        fill: #ffa005;
      }

      .cls-4 {
        fill: #ced0d2;
      }

      .cls-5 {
        fill: #07c846;
      }
    </style>
  </defs>
  <g>
    <path class="cls-2" d="m2,181.93V12.35c0-5.61,3.44-10.35,7.52-10.35h216.73c4.08,0,7.52,4.74,7.52,10.35v169.58H2Z"/>
    <path class="cls-4" d="m226.25,4c2.94,0,5.52,3.9,5.52,8.35v167.57H4V12.35c0-4.45,2.58-8.35,5.52-8.35h216.73m0-4H9.52C4.28,0,0,5.56,0,12.35v171.57h235.76V12.35c0-6.8-4.28-12.35-9.52-12.35h0Z"/>
  </g>
  <g>
    <path class="cls-1" d="m35.14,58.53c60.75,8.4,90.09-29.3,165.5-20.89l-.02,56.56c-60.75-8.4-90.09,29.3-165.5,21.17l.02-56.83Z"/>
    <path class="cls-3" d="m110.68,22.45c-33.18,10.29-49,14.65-75.53,10.87v18.87s.66.09.66.09c28.13,3.89,49.6-2.58,72.32-9.44,2.74-.83,5.52-1.66,8.36-2.5l-5.81-17.9Z"/>
    <path class="cls-5" d="m199.93,100.38c-28.17-3.9-49.68,2.62-72.44,9.52-2.7.82-5.44,1.65-8.23,2.47l5.8,17.88c33.2-10.3,49.02-14.66,75.56-10.88v-18.89s-.69-.1-.69-.1Z"/>
  </g>
  <path class="cls-1" d="m113.97,154.83c-12.69,2.95-29.54,6.69-47.97,8.52-10.37,1.03-21.25,1.46-32.17.82-11.41-.67-22.86-2.53-33.84-6.1v59.5c0,8.43,5.32,15.34,11.81,15.34h212.13c6.5,0,11.81-6.9,11.81-15.34v-72.11c-42.79-13.23-93.16,2.71-121.79,9.37Z"/>
  <path class="cls-2" d="m215.41,167.45c-5.58-5.59-13.79-8.42-24.39-8.42h-6.94c-10.6,0-18.81,2.83-24.39,8.42-5.58,5.59-8.41,13.41-8.41,23.24s2.83,17.49,8.41,23.04c5.58,5.55,13.79,8.36,24.39,8.36h6.94c10.51,0,18.7-2.81,24.33-8.36,5.62-5.55,8.48-13.3,8.48-23.04s-2.83-17.65-8.41-23.24Zm-2.19,23.11c0,6.6-1.89,11.61-5.61,14.9-3.73,3.3-9.4,4.97-16.87,4.97h-6.4c-7.51,0-13.22-1.67-16.97-4.97-3.74-3.29-5.64-8.31-5.64-14.9s1.9-11.62,5.64-14.91c3.75-3.3,9.46-4.97,16.97-4.97h6.4c7.47,0,13.14,1.67,16.87,4.97,3.72,3.29,5.61,8.31,5.61,14.91Z"/>
</svg>