<?xml version="1.0" encoding="utf-8"?>
<!-- Generator: Adobe Illustrator 27.7.0, SVG Export Plug-In . SVG Version: 6.00 Build 0)  -->
<svg version="1.1" id="_图层_1" xmlns="http://www.w3.org/2000/svg" xmlns:xlink="http://www.w3.org/1999/xlink" x="0px" y="0px"
	 viewBox="0 0 300.4 277.9" style="enable-background:new 0 0 300.4 277.9;" xml:space="preserve">
<style type="text/css">
	.st0{fill:#FFFFFF;}
	.st1{fill:#CED0D2;}
	.st2{fill:#0181FD;stroke:#0181FD;stroke-width:5.84;stroke-miterlimit:10;}
	.st3{fill:#0181FD;}
	.st4{fill:#FFA005;}
	.st5{fill:#07C846;}
</style>
<g>
	<path class="st0" d="M31.1,2.9h238.2c15.6,0,28.2,12.6,28.2,28.2v215.7c0,15.6-12.6,28.2-28.2,28.2H31.1
		c-15.6,0-28.2-12.6-28.2-28.2V31.1C2.9,15.6,15.6,2.9,31.1,2.9z"/>
	<path class="st1" d="M269.3,277.9H31.1C14,277.9,0,264,0,246.8V31.1C0,14,14,0,31.1,0h238.1c17.2,0,31.1,14,31.1,31.1v215.7
		C300.4,264,286.5,277.9,269.3,277.9L269.3,277.9z M31.1,5.8C17.2,5.8,5.8,17.2,5.8,31.1v215.7c0,13.9,11.3,25.3,25.3,25.3h238.1
		c13.9,0,25.3-11.3,25.3-25.3V31.1c0-13.9-11.3-25.3-25.3-25.3C269.3,5.8,31.1,5.8,31.1,5.8z"/>
</g>
<path class="st2" d="M2.9,204.6h294.6v42.2c0,15.6-12.6,28.2-28.2,28.2H31.1c-15.6,0-28.2-12.6-28.2-28.2V204.6L2.9,204.6z"/>
<g>
	<path class="st3" d="M44.8,92.4c77.4,10.7,114.8-37.3,210.9-26.6l0,72.1c-77.4-10.7-114.8,37.3-210.9,27L44.8,92.4L44.8,92.4z"/>
	<path class="st4" d="M141,46.4C98.8,59.5,78.6,65.1,44.8,60.3v24l0.8,0.1c35.8,4.9,63.2-3.3,92.2-12c3.5-1.1,7-2.1,10.6-3.2
		L141,46.4L141,46.4z"/>
	<path class="st5" d="M254.8,145.7c-35.9-5-63.3,3.3-92.3,12.1c-3.4,1-6.9,2.1-10.5,3.1l7.4,22.8c42.3-13.1,62.5-18.7,96.3-13.9
		v-24.1L254.8,145.7L254.8,145.7z"/>
</g>
<g>
	<path class="st0" d="M97.1,212h-1.4c-1.4,0-2.4,0.6-3,1.9l-16,32.5l-16-32.5c-0.6-1.2-1.6-1.9-3.1-1.9h-1.5c-0.8,0-1.4,0.2-1.8,0.7
		c-0.4,0.4-0.6,1.1-0.6,1.9v37.8c0,0.8,0.2,1.4,0.7,1.9c0.4,0.4,1.1,0.7,1.9,0.7h1.3c0.8,0,1.5-0.2,1.9-0.7c0.5-0.4,0.7-1.1,0.7-1.9
		v-26.2l13.3,27.1c0.2,0.5,0.6,0.9,1,1.2c0.4,0.3,1,0.4,1.6,0.4h1.1c0.6,0,1.1-0.1,1.6-0.4c0.4-0.3,0.8-0.7,1-1.2l13.3-27.1v26.2
		c0,0.8,0.2,1.4,0.7,1.9c0.4,0.4,1.1,0.7,1.9,0.7h1.4c0.8,0,1.5-0.2,1.9-0.7c0.5-0.4,0.7-1.1,0.7-1.9v-37.8c0-0.8-0.2-1.5-0.7-1.9
		C98.6,212.3,97.9,212,97.1,212z"/>
	<path class="st0" d="M133,224.3h-1.4c-1.4,0-2.4,0.6-2.9,1.9l-8.5,19.5l-8.1-19.5c-0.5-1.3-1.5-1.9-2.9-1.9h-1.4
		c-0.9,0-1.5,0.3-2,0.8c-0.4,0.6-0.4,1.2-0.1,2.1l11.3,25.7l-5.5,12.5c-0.4,0.9-0.4,1.5,0,2.1c0.4,0.5,1,0.8,1.9,0.8h1.6
		c0.7,0,1.3-0.2,1.8-0.5c0.5-0.3,0.8-0.8,1.1-1.5l17.2-39.2c0.4-0.8,0.4-1.5-0.1-2C134.6,224.5,133.9,224.3,133,224.3z"/>
	<path class="st0" d="M161.7,230.9c-1.5-0.5-3.6-0.8-6.1-1.1c-0.7-0.1-1.4-0.2-2.1-0.3c-0.6-0.1-1.2-0.2-1.7-0.3
		c-1.5-0.3-2.6-1-3.5-2.1c-0.9-1.1-1.3-2.3-1.2-3.6c0-1.3,0.5-2.5,1.5-3.6c1.2-1.4,2.6-2.2,4.2-2.6c1.6-0.3,3.2-0.2,4.8,0.4
		c1.6,0.6,2.9,1.7,3.9,3.1c0.6,0.7,1.1,1.2,1.7,1.4c0.5,0.2,1.2,0.2,1.9-0.2l1.3-0.5c0.8-0.3,1.3-0.8,1.6-1.4c0.2-0.6,0.1-1.3-0.5-2
		c-1.7-2.7-4-4.6-7-5.8c-3-1.2-6-1.5-9.1-1c-3.1,0.6-5.6,2-7.7,4.3c-1.9,2.1-2.9,4.6-2.9,7.4c0,2.8,0.8,5.4,2.6,7.6
		c1.7,2.2,4,3.6,6.8,4.1c2,0.3,3.3,0.5,3.9,0.6c2.7,0.3,4.5,0.7,5.4,1c1.5,0.4,2.6,1.2,3.4,2.2c0.8,1,1.1,2.2,1.1,3.5
		s-0.5,2.6-1.3,3.8c-1.4,1.9-3.2,3-5.5,3.5c-2.3,0.5-4.5,0.2-6.6-0.8c-2.1-1-3.6-2.4-4.6-4.4c-0.5-0.7-0.9-1.2-1.4-1.5
		c-0.4-0.3-1-0.4-1.7-0.3l-1.6,0.2c-0.9,0.1-1.5,0.5-1.8,1c-0.3,0.6-0.4,1.2-0.1,2c1.4,3.5,4,6.1,7.7,7.9c3.7,1.8,7.6,2.3,11.6,1.6
		c4-0.7,7.1-2.6,9.3-5.7c1.6-2.2,2.5-4.6,2.5-7.2c0.1-2.6-0.7-4.9-2.2-7C166.8,233.4,164.6,231.9,161.7,230.9z"/>
	<path class="st0" d="M208.7,214.4c-3.4-2-7.1-3-11.2-3c-4,0-7.7,1-11.1,3c-3.4,2-6.1,4.7-8.2,8.1c-2,3.4-3,7.1-3,11.2
		c0,4,1,7.7,3,11.1c2,3.4,4.7,6,8.2,8c3.4,2,7.1,3,11.1,3c4.1,0,7.8-1,11.2-2.9l0.6,0.8c0.5,0.8,1.1,1.4,1.6,1.7
		c0.5,0.3,1.1,0.5,1.9,0.5h1.7c0.7,0,1.2-0.2,1.7-0.5c0.4-0.3,0.6-0.8,0.6-1.3s-0.3-1.2-0.7-1.8l-2.4-3.1c1.3-1.3,2.4-2.7,3.3-4.3
		c2-3.4,3-7.1,3-11.1c0-4-1-7.7-3-11.2C214.8,219.1,212.1,216.4,208.7,214.4z M207.5,241.3c-0.5-0.6-1-1-1.5-1.2
		c-0.5-0.3-1.1-0.4-1.8-0.4h-1.5c-0.5,0-0.9,0.1-1.2,0.4c-0.3,0.3-0.5,0.6-0.6,1.1c0,0.5,0.1,0.9,0.3,1.4l3.8,5.2
		c-2.3,1.2-4.8,1.8-7.6,1.8c-3,0-5.7-0.7-8-2.1c-2.4-1.4-4.2-3.3-5.6-5.7c-1.4-2.4-2-5.1-2-8.2c0-3.1,0.7-5.8,2-8.3
		c1.4-2.5,3.2-4.4,5.6-5.8c2.4-1.4,5.1-2.1,8-2.1c3,0,5.7,0.7,8.1,2.1c2.4,1.4,4.2,3.3,5.6,5.8c1.4,2.5,2,5.2,2,8.3
		c0,3-0.7,5.7-2,8.2c-0.5,0.8-1,1.5-1.6,2.2L207.5,241.3z"/>
	<path class="st0" d="M251.9,249.3c-0.4-0.4-1-0.6-1.9-0.6h-16.6v-34.1c0-0.8-0.2-1.4-0.7-1.9c-0.4-0.4-1.1-0.7-1.9-0.7h-1.3
		c-0.8,0-1.4,0.2-1.9,0.7c-0.4,0.4-0.7,1.1-0.7,1.9v36.3c0,1.4,0.3,2.4,1,3.1c0.7,0.7,1.7,1.1,3.1,1.1h1.2h1.2h16.6
		c0.8,0,1.4-0.2,1.9-0.6c0.4-0.4,0.6-1,0.6-1.9v-1.3C252.6,250.4,252.4,249.8,251.9,249.3z"/>
</g>
<g>
	<path class="st3" d="M185.2,0h87c15.6,0,28.2,12.6,28.2,28.2v15.3h-87c-15.6,0-28.2-12.6-28.2-28.2V0L185.2,0z"/>
	<g>
		<path class="st0" d="M228.5,9.6h-0.7c-0.7,0-1.2,0.3-1.5,0.9l-7.8,15.9l-7.8-15.9c-0.3-0.6-0.8-0.9-1.5-0.9h-0.7
			c-0.4,0-0.7,0.1-0.9,0.3c-0.2,0.2-0.3,0.5-0.3,1v18.5c0,0.4,0.1,0.7,0.3,0.9c0.2,0.2,0.5,0.3,0.9,0.3h0.7c0.4,0,0.7-0.1,0.9-0.3
			c0.2-0.2,0.3-0.5,0.3-0.9V16.6l6.5,13.3c0.1,0.3,0.3,0.5,0.5,0.6c0.2,0.1,0.5,0.2,0.8,0.2h0.5c0.3,0,0.6-0.1,0.8-0.2
			c0.2-0.1,0.4-0.3,0.5-0.6l6.5-13.3v12.8c0,0.4,0.1,0.7,0.3,0.9c0.2,0.2,0.5,0.3,0.9,0.3h0.7c0.4,0,0.7-0.1,0.9-0.3
			c0.2-0.2,0.3-0.5,0.3-0.9V10.9c0-0.4-0.1-0.7-0.3-1S228.9,9.6,228.5,9.6z"/>
		<path class="st0" d="M245,16.4c-1.2-0.7-2.5-1.1-3.9-1.1c-1.4,0-2.7,0.4-3.9,1.1s-2.2,1.7-2.9,2.9c-0.7,1.2-1.1,2.5-1.1,3.9
			c0,1.4,0.4,2.7,1.1,3.9c0.7,1.2,1.7,2.2,2.9,2.9c1.2,0.7,2.5,1.1,3.9,1.1c1.4,0,2.7-0.4,3.9-1.1c1.2-0.7,2.2-1.7,2.9-2.9
			c0.7-1.2,1.1-2.5,1.1-3.9c0-1.4-0.4-2.7-1.1-3.9C247.1,18,246.2,17.1,245,16.4z M245.2,25.8c-0.4,0.8-0.9,1.4-1.7,1.8
			c-0.7,0.4-1.5,0.6-2.5,0.6c-0.9,0-1.7-0.2-2.5-0.6c-0.7-0.4-1.3-1-1.7-1.8c-0.4-0.8-0.6-1.6-0.6-2.6c0-1,0.2-1.9,0.6-2.6
			c0.4-0.8,0.9-1.4,1.7-1.8c0.7-0.4,1.5-0.6,2.5-0.6c0.9,0,1.8,0.2,2.5,0.6c0.7,0.4,1.3,1,1.7,1.8c0.4,0.8,0.6,1.6,0.6,2.6
			C245.8,24.1,245.6,25,245.2,25.8z"/>
		<path class="st0" d="M265.6,9.1H265c-0.4,0-0.7,0.1-0.9,0.3c-0.2,0.2-0.3,0.5-0.3,0.9v7.4c-0.4-0.5-0.8-0.9-1.3-1.2
			c-1-0.8-2.2-1.2-3.6-1.2c-1.4,0-2.7,0.4-3.8,1.1s-2,1.7-2.7,2.9c-0.7,1.2-1,2.5-1,3.9s0.3,2.7,1,3.9c0.7,1.2,1.5,2.2,2.7,2.9
			c1.1,0.7,2.4,1.1,3.8,1.1c1.4,0,2.6-0.4,3.6-1.2c0.5-0.4,0.9-0.8,1.3-1.2v0.9c0,0.4,0.1,0.7,0.3,0.9c0.2,0.2,0.5,0.3,0.9,0.3h0.6
			c0.4,0,0.7-0.1,0.9-0.3c0.2-0.2,0.3-0.5,0.3-0.9V10.4c0-0.4-0.1-0.7-0.3-0.9C266.3,9.3,266,9.1,265.6,9.1z M261.7,27.6
			c-0.7,0.4-1.6,0.6-2.6,0.6c-0.8,0-1.6-0.2-2.3-0.7c-0.7-0.4-1.2-1-1.6-1.8c-0.4-0.8-0.6-1.6-0.6-2.6s0.2-1.9,0.6-2.6
			c0.4-0.8,0.9-1.4,1.6-1.8s1.4-0.7,2.3-0.7c1,0,1.8,0.2,2.6,0.6c0.7,0.4,1.3,1,1.7,1.8c0.4,0.8,0.6,1.7,0.6,2.7s-0.2,1.9-0.6,2.6
			C263,26.6,262.4,27.2,261.7,27.6z"/>
		<path class="st0" d="M282.9,24h0.5c0.6,0,1-0.2,1.3-0.5c0.3-0.3,0.4-0.8,0.3-1.3c-0.2-1.5-0.6-2.7-1.3-3.8c-0.7-1-1.6-1.8-2.6-2.3
			c-1-0.5-2.2-0.8-3.4-0.8c-1.5,0-2.9,0.3-4.1,1s-2.1,1.6-2.8,2.8c-0.7,1.2-1,2.5-1,4s0.3,2.8,1,4c0.7,1.2,1.6,2.1,2.8,2.8
			c1.2,0.7,2.6,1,4.3,1c1.1,0,2.2-0.3,3.3-0.8s2-1.2,2.7-2.1c0.3-0.3,0.4-0.5,0.4-0.8c0-0.3-0.2-0.5-0.6-0.7l-0.5-0.4
			c-0.3-0.2-0.5-0.2-0.8-0.2s-0.5,0.2-0.8,0.4c-0.5,0.6-1,1-1.6,1.4c-0.6,0.3-1.3,0.5-2,0.5c-1.1,0-2.1-0.2-2.9-0.6
			c-0.8-0.4-1.4-1-1.7-1.7c-0.3-0.6-0.5-1.2-0.5-1.9h9.6H282.9z M272.9,21.5c0.1-0.4,0.2-0.7,0.4-1.1c0.4-0.8,1-1.3,1.7-1.7
			c0.7-0.4,1.6-0.6,2.7-0.6c0.9,0,1.7,0.2,2.4,0.6c0.7,0.4,1.2,1.1,1.6,1.9c0.1,0.3,0.2,0.5,0.3,0.8H272.9z"/>
	</g>
</g>
</svg>
