<?xml version="1.0" encoding="UTF-8"?>
<svg id="_图层_1" data-name=" 图层 1" xmlns="http://www.w3.org/2000/svg" viewBox="0 0 300.41 277.94">
  <defs>
    <style>
      .cls-1 {
        stroke: #0181fd;
        stroke-miterlimit: 10;
        stroke-width: 5.84px;
      }

      .cls-1, .cls-2 {
        fill: #0181fd;
      }

      .cls-3 {
        fill: #fff;
      }

      .cls-4 {
        fill: #ffa005;
      }

      .cls-5 {
        fill: #ced0d2;
      }

      .cls-6 {
        fill: #07c846;
      }
    </style>
  </defs>
  <g>
    <rect class="cls-3" x="2.92" y="2.92" width="294.57" height="272.09" rx="28.21" ry="28.21"/>
    <path class="cls-5" d="m269.28,277.93H31.13c-17.17,0-31.13-13.96-31.13-31.13V31.13C0,13.96,13.96,0,31.13,0h238.15c17.17,0,31.13,13.96,31.13,31.13v215.68c0,17.16-13.96,31.13-31.13,31.13h0ZM31.13,5.84c-13.94,0-25.29,11.34-25.29,25.29v215.68c0,13.94,11.34,25.29,25.29,25.29h238.15c13.94,0,25.29-11.34,25.29-25.29V31.13c0-13.94-11.34-25.29-25.29-25.29,0,0-238.15,0-238.15,0Z"/>
  </g>
  <path class="cls-1" d="m2.92,204.58h294.57v42.23c0,15.57-12.64,28.21-28.21,28.21H31.13c-15.57,0-28.21-12.64-28.21-28.21v-42.23h0Z"/>
  <g>
    <path class="cls-2" d="m44.77,92.4c77.41,10.7,114.8-37.33,210.89-26.63l-.02,72.07c-77.41-10.7-114.8,37.33-210.89,26.97l.02-72.42h0Z"/>
    <path class="cls-4" d="m141.03,46.42c-42.28,13.12-62.44,18.67-96.25,13.85v24.04l.85.11c35.85,4.95,63.2-3.29,92.15-12.02,3.49-1.05,7.04-2.12,10.65-3.18l-7.4-22.81h0Z"/>
    <path class="cls-6" d="m254.75,145.73c-35.9-4.96-63.3,3.34-92.31,12.13-3.44,1.04-6.93,2.1-10.48,3.15l7.4,22.79c42.3-13.13,62.46-18.68,96.28-13.86v-24.07l-.88-.12v-.02Z"/>
  </g>
  <g>
    <path class="cls-2" d="m185.19,0h87.01c15.57,0,28.21,12.64,28.21,28.21v15.33h-87.01c-15.57,0-28.21-12.64-28.21-28.21V0h0Z"/>
    <g>
      <path class="cls-3" d="m92.44,215.99c-3.31-1.93-6.89-2.9-10.76-2.9s-7.46.97-10.76,2.9c-3.31,1.93-5.93,4.55-7.86,7.86-1.94,3.31-2.9,6.91-2.9,10.82s.97,7.49,2.9,10.76c1.93,3.27,4.54,5.86,7.83,7.77,3.29,1.92,6.88,2.87,10.79,2.87s7.5-.96,10.79-2.87c3.29-1.92,5.9-4.51,7.83-7.77,1.93-3.27,2.9-6.85,2.9-10.76s-.97-7.51-2.9-10.82c-1.93-3.3-4.55-5.92-7.86-7.86Zm2.37,26.65c-1.28,2.35-3.06,4.18-5.35,5.49-2.29,1.32-4.88,1.97-7.77,1.97s-5.48-.66-7.77-1.97c-2.29-1.31-4.08-3.15-5.35-5.49-1.28-2.35-1.92-5-1.92-7.97s.64-5.63,1.92-8c1.28-2.37,3.07-4.23,5.38-5.58,2.31-1.35,4.89-2.03,7.75-2.03s5.44.68,7.75,2.03c2.31,1.35,4.1,3.21,5.38,5.58,1.28,2.37,1.92,5.03,1.92,8s-.64,5.62-1.92,7.97Z"/>
      <path class="cls-3" d="m122.36,225.26c-2.59.45-4.89,1.62-6.9,3.49-.11.1-.2.22-.31.33v-1.06c0-.79-.21-1.39-.62-1.8-.41-.41-1.01-.62-1.8-.62h-1.18c-.79,0-1.39.21-1.8.62-.41.41-.62,1.01-.62,1.8v25.01c0,.79.21,1.39.62,1.8.41.41,1.01.62,1.8.62h1.18c.79,0,1.39-.21,1.8-.62.41-.41.62-1.01.62-1.8v-12.17c0-2.03.3-3.75.9-5.16.6-1.41,1.45-2.5,2.54-3.27,1.09-.77,2.44-1.25,4.06-1.44.75-.11,1.3-.37,1.66-.76.36-.39.54-.95.54-1.66v-1.24c0-.75-.23-1.32-.68-1.72s-1.05-.52-1.8-.37Z"/>
      <path class="cls-3" d="m155.89,225.6h-1.35c-.79,0-1.39.21-1.8.62-.41.41-.62,1.01-.62,1.8v1.73c-.73-.9-1.55-1.71-2.48-2.43-2.03-1.56-4.43-2.34-7.21-2.34s-5.35.7-7.61,2.08c-2.25,1.39-4.03,3.28-5.32,5.66-1.3,2.39-1.94,4.99-1.94,7.8s.65,5.42,1.94,7.8c1.3,2.39,3.07,4.27,5.32,5.66,2.25,1.39,4.79,2.08,7.61,2.08s5.18-.78,7.21-2.34c.93-.72,1.75-1.54,2.48-2.43v1.73c0,.79.21,1.39.62,1.8.41.41,1.01.62,1.8.62h1.35c.79,0,1.39-.21,1.8-.62s.62-1.01.62-1.8v-25.01c0-.79-.21-1.39-.62-1.8-.41-.41-1.01-.62-1.8-.62Zm-4.54,20.17c-.81,1.54-1.94,2.73-3.41,3.58-1.46.85-3.15,1.27-5.07,1.27-1.65,0-3.15-.43-4.51-1.29-1.35-.86-2.41-2.06-3.18-3.58-.77-1.52-1.15-3.26-1.15-5.21s.38-3.7,1.15-5.24c.77-1.54,1.84-2.74,3.21-3.61,1.37-.86,2.86-1.3,4.48-1.3,1.92,0,3.61.42,5.07,1.27s2.6,2.05,3.41,3.61c.81,1.56,1.21,3.32,1.21,5.27s-.4,3.7-1.21,5.24Z"/>
      <path class="cls-3" d="m186.37,226.45c-2.03-.98-4.22-1.46-6.59-1.46-2.82,0-5.42.7-7.8,2.08-2.39,1.39-4.28,3.28-5.69,5.66-1.41,2.39-2.11,4.99-2.11,7.8s.7,5.42,2.11,7.8c1.41,2.39,3.3,4.27,5.69,5.66,2.38,1.39,4.99,2.08,7.8,2.08,2.29,0,4.45-.5,6.48-1.49,2.03-1,3.77-2.28,5.24-3.86.53-.56.75-1.14.68-1.72-.08-.58-.45-1.1-1.13-1.55l-1.07-.79c-.6-.45-1.15-.64-1.63-.56-.49.08-1.01.39-1.58.96-.98,1.05-2.04,1.84-3.18,2.37-1.15.53-2.41.79-3.8.79-1.88,0-3.54-.4-4.99-1.21-1.45-.81-2.57-1.94-3.38-3.41s-1.21-3.16-1.21-5.07.4-3.61,1.21-5.07,1.93-2.6,3.38-3.41c1.45-.81,3.11-1.21,4.99-1.21,1.39,0,2.66.25,3.8.76,1.14.51,2.15,1.25,3.01,2.23.56.56,1.08.89,1.55.99.47.09,1.02-.05,1.66-.42l1.18-.73c.68-.38,1.08-.85,1.21-1.44.13-.58-.08-1.17-.65-1.77-1.43-1.69-3.16-3.02-5.18-4Z"/>
      <path class="cls-3" d="m201.47,212.75h-1.18c-.75,0-1.34.21-1.77.62-.43.41-.65,1.01-.65,1.8v37.86c0,.75.22,1.34.65,1.78.43.43,1.02.65,1.77.65h1.18c.79,0,1.39-.22,1.8-.65s.62-1.02.62-1.78v-37.86c0-.79-.21-1.39-.62-1.8-.41-.41-1.01-.62-1.8-.62Z"/>
      <path class="cls-3" d="m237.52,231.06c-1.43-2.03-3.17-3.55-5.24-4.56-2.07-1.01-4.28-1.52-6.65-1.52-3,0-5.7.67-8.08,2-2.39,1.33-4.24,3.17-5.58,5.52-1.33,2.35-2,5.01-2,7.97s.67,5.63,2,8c1.33,2.37,3.21,4.23,5.63,5.58,2.42,1.35,5.25,2.03,8.48,2.03,2.25,0,4.43-.5,6.54-1.49,2.1-1,3.91-2.39,5.41-4.2.56-.53.8-1.07.71-1.63-.09-.56-.48-1.05-1.16-1.46l-1.07-.79c-.56-.34-1.09-.47-1.58-.39-.49.08-1.01.36-1.58.84-.9,1.17-1.98,2.07-3.24,2.71-1.26.64-2.6.96-4.03.96-2.25,0-4.15-.39-5.69-1.18-1.54-.79-2.7-1.94-3.46-3.46-.57-1.12-.92-2.41-1.07-3.86h21.04c1.16,0,2.06-.33,2.68-.99.62-.66.82-1.53.59-2.62-.34-2.93-1.22-5.41-2.65-7.44Zm-21.35,6.08c.19-.74.43-1.45.76-2.08.77-1.5,1.89-2.65,3.35-3.44,1.46-.79,3.25-1.18,5.35-1.18,1.8,0,3.39.4,4.76,1.21,1.37.81,2.46,2.08,3.27,3.83.24.51.43,1.07.59,1.66h-18.08Z"/>
      <path class="cls-3" d="m210.45,29.44v-12.82l6.51,13.27c.11.27.28.46.5.6.22.13.48.2.78.2h.54c.3,0,.56-.07.78-.2.22-.13.38-.33.5-.6l6.51-13.27v12.82c0,.4.11.71.33.92.22.22.53.33.92.33h.68c.4,0,.71-.11.94-.33.23-.22.34-.53.34-.92V10.91c0-.42-.11-.73-.34-.95s-.54-.33-.94-.33h-.68c-.7,0-1.19.3-1.48.91l-7.82,15.94-7.84-15.94c-.3-.61-.8-.91-1.51-.91h-.71c-.38,0-.67.11-.88.33-.21.22-.31.54-.31.95v18.53c0,.4.11.71.33.92.22.22.53.33.92.33h.65c.4,0,.71-.11.94-.33.23-.22.34-.53.34-.92Z"/>
      <path class="cls-3" d="m244.99,16.37c-1.2-.7-2.51-1.05-3.94-1.05s-2.7.35-3.91,1.05-2.16,1.65-2.87,2.86c-.71,1.2-1.07,2.52-1.07,3.94s.35,2.71,1.05,3.91c.7,1.2,1.65,2.16,2.86,2.87,1.2.71,2.51,1.07,3.94,1.07s2.73-.36,3.94-1.07c1.2-.71,2.16-1.67,2.86-2.87.7-1.2,1.05-2.5,1.05-3.91s-.35-2.73-1.05-3.94c-.7-1.2-1.65-2.15-2.86-2.86Zm.2,9.39c-.39.77-.94,1.36-1.66,1.79-.72.43-1.54.64-2.47.64s-1.75-.21-2.46-.64c-.71-.43-1.26-1.02-1.66-1.79-.4-.77-.6-1.63-.6-2.6s.19-1.86.58-2.61c.39-.76.94-1.35,1.66-1.78.72-.43,1.54-.64,2.47-.64s1.75.21,2.47.64c.72.43,1.27,1.02,1.66,1.78.39.76.58,1.63.58,2.61s-.19,1.83-.58,2.6Z"/>
      <path class="cls-3" d="m265.61,9.15h-.6c-.38,0-.68.1-.9.31-.22.21-.33.51-.33.91v7.35c-.37-.45-.78-.87-1.25-1.23-1.02-.79-2.24-1.18-3.64-1.18s-2.7.35-3.84,1.05-2.03,1.65-2.69,2.86c-.65,1.2-.98,2.52-.98,3.94s.33,2.73.98,3.94c.65,1.2,1.55,2.16,2.69,2.86,1.14.7,2.42,1.05,3.84,1.05s2.62-.39,3.64-1.18c.47-.36.88-.77,1.25-1.23v.87c0,.38.11.68.33.89.22.22.52.33.9.33h.6c.4,0,.7-.11.91-.33.21-.22.31-.52.31-.89V10.37c0-.4-.1-.7-.31-.91s-.51-.31-.91-.31Zm-2.2,16.65c-.41.78-.98,1.38-1.72,1.8-.74.43-1.59.64-2.56.64-.83,0-1.59-.22-2.27-.65-.68-.44-1.22-1.04-1.61-1.8-.39-.77-.58-1.64-.58-2.63s.19-1.87.58-2.64c.39-.78.93-1.38,1.62-1.82s1.45-.65,2.26-.65c.97,0,1.82.21,2.56.64.74.43,1.31,1.03,1.72,1.82.41.79.61,1.67.61,2.66s-.2,1.87-.61,2.64Z"/>
      <path class="cls-3" d="m282.95,23.95h.46c.59,0,1.04-.17,1.35-.5.31-.33.41-.77.3-1.32-.17-1.48-.62-2.73-1.34-3.75-.72-1.02-1.6-1.79-2.64-2.3-1.04-.51-2.16-.77-3.35-.77-1.52,0-2.88.34-4.08,1.01s-2.14,1.6-2.81,2.79c-.67,1.18-1.01,2.52-1.01,4.02s.34,2.84,1.01,4.04c.67,1.19,1.62,2.13,2.84,2.81,1.22.68,2.65,1.02,4.28,1.02,1.14,0,2.24-.25,3.3-.75s1.97-1.21,2.73-2.12c.28-.27.4-.54.36-.82-.05-.28-.24-.53-.58-.74l-.54-.4c-.28-.17-.55-.24-.8-.2s-.51.18-.79.43c-.46.59-1,1.04-1.63,1.36-.63.32-1.31.48-2.03.48-1.14,0-2.09-.2-2.87-.6-.78-.4-1.36-.98-1.75-1.75-.29-.56-.46-1.21-.54-1.95h10.16Zm-10-2.5c.09-.38.22-.73.38-1.05.39-.76.95-1.34,1.69-1.73.74-.4,1.64-.6,2.7-.6.91,0,1.71.2,2.4.61.69.41,1.24,1.05,1.65,1.93.12.26.22.54.3.84h-9.12Z"/>
    </g>
  </g>
</svg>