<svg version="1.1" xmlns="http://www.w3.org/2000/svg" xmlns:xlink="http://www.w3.org/1999/xlink"
  viewBox="0 0 1500 1024">
  <g fill="currentColor" stroke="currentColor" stroke-width="1">
    <path
      d="M457.691664 807.58418484c-27.11781475 13.55890736-84.06522723 32.54137884-157.28332816 32.54137884-165.41867332 0-273.8899323-113.89482305-273.88993232-282.02527748 0-170.84223554 116.60660606-292.87240375 295.58418487-292.87240375 59.65919355 0 111.18304193 13.55890736 138.30085671 27.11781473l-24.40603364 78.64166312c-24.40603363-13.55890736-62.37097468-27.11781475-116.60660416-27.11781471-127.45373042 0-195.24826918 92.20057241-195.24826917 208.80717651 0 127.45373042 81.35344611 206.09539546 192.53648616 206.09539545 56.94741249 0 94.91235348-13.55890736 122.03016822-27.11781473l18.98247149 75.92988202zM709.88734563 118.79168059v157.28332812h143.72441888v75.92988204h-143.72441888v298.29596593c0 67.79453874 18.98247147 105.75947978 75.92988204 105.75947976 27.11781475 0 46.1002862-2.71178109 56.94741055-8.13534515l5.42356409 75.92988391c-18.98247147 8.13534518-48.81206729 13.55890736-89.48878937 13.55890738-46.1002862 0-84.06522723-13.55890736-108.47126091-43.38850511-27.11781475-29.82959584-37.96494102-78.64166313-37.964941-143.72442079v-298.29596593h-86.7770102v-75.92988204h86.7770102v-132.87729448l97.6241346-24.40603364zM964.79480645 449.62902532c0-65.08275577 0-122.03016823-5.42356217-170.84223551h86.7770083l2.71178109 108.47126086h5.42356406c24.40603363-73.21810095 86.77700832-122.03016823 151.85976409-122.03016822 10.84712629 0 18.98247147 0 29.82959774 2.71178111v94.91235347c-10.84712629-2.71178109-21.69425257-2.71178109-35.25315992-2.71178112-70.50631984 0-122.03016823 54.23562949-135.5890756 127.45373046-2.71178109 13.55890736-5.42356217 29.82959584-5.42356407 46.1002862v292.87240373h-100.33591569V449.62902532h5.42356217zM1341.73243743 18.45576487h100.33591759v808.11089143h-100.33591759V18.45576487z" />
  </g>
</svg>
