<svg version="1.1" xmlns="http://www.w3.org/2000/svg" xmlns:xlink="http://www.w3.org/1999/xlink"
  viewBox="0 0 72 72">
  <g fill="currentColor" stroke="currentColor" stroke-width="0.5">
    <path d="M32.1,43.8v4.5c0,2.3-0.8,4.2-2.4,5.8c-1.6,1.6-3.6,2.4-5.9,2.4s-4.2-0.8-5.9-2.4
    c-1.6-1.6-2.4-3.6-2.4-5.9c0-2.3,0.8-4.2,2.4-5.8c1.6-1.6,3.5-2.4,5.8-2.4h4.5v-7.8h-4.5c-2.2,0-4.2-0.8-5.8-2.4
    c-1.6-1.6-2.4-3.6-2.4-5.9c0-2.3,0.8-4.2,2.4-5.8c1.6-1.6,3.6-2.4,5.9-2.4s4.3,0.8,5.9,2.4c1.6,1.6,2.4,3.5,2.4,5.8v4.5h7.8v-4.5
    c0-2.3,0.8-4.2,2.4-5.8c1.6-1.6,3.6-2.4,5.9-2.4c2.3,0,4.3,0.8,5.9,2.4c1.6,1.6,2.4,3.6,2.4,5.8c0,2.3-0.8,4.2-2.4,5.9
    c-1.6,1.6-3.5,2.4-5.8,2.4h-4.5v7.8h4.5c2.3,0,4.2,0.8,5.8,2.4c1.6,1.6,2.4,3.6,2.4,5.8c0,2.3-0.8,4.3-2.4,5.9
    c-1.6,1.6-3.6,2.4-5.9,2.4c-2.3,0-4.3-0.8-5.9-2.4c-1.6-1.6-2.4-3.5-2.4-5.8v-4.5H32.1z M28.2,28.2v-4.4c0-1.2-0.4-2.2-1.3-3.1
    s-1.9-1.3-3.1-1.3c-1.2,0-2.2,0.4-3.1,1.3c-0.9,0.9-1.3,1.9-1.3,3.1c0,1.2,0.4,2.2,1.3,3.1c0.9,0.9,1.9,1.3,3.1,1.3L28.2,28.2
    L28.2,28.2z M28.2,43.8h-4.4c-1.2,0-2.2,0.4-3.1,1.3s-1.3,1.9-1.3,3.1c0,1.2,0.4,2.3,1.3,3.1s1.9,1.3,3.1,1.3s2.2-0.4,3.1-1.3
    c0.9-0.9,1.3-1.9,1.3-3.1L28.2,43.8L28.2,43.8z M32.1,39.9h7.8v-7.8h-7.8V39.9z M43.8,28.2h4.4c1.2,0,2.2-0.4,3.1-1.3
    c0.9-0.9,1.3-1.9,1.3-3.1s-0.4-2.2-1.3-3.1c-0.9-0.9-1.9-1.3-3.1-1.3c-1.2,0-2.3,0.4-3.1,1.3c-0.9,0.9-1.3,1.9-1.3,3.1L43.8,28.2
    L43.8,28.2z M43.8,43.8v4.4c0,1.2,0.4,2.2,1.3,3.1s1.9,1.3,3.1,1.3c1.2,0,2.2-0.4,3.1-1.3c0.9-0.9,1.3-1.9,1.3-3.1
    c0-1.2-0.4-2.2-1.3-3.1c-0.9-0.9-1.9-1.3-3.1-1.3H43.8z" />
  </g>
</svg>
