<svg width="964" height="182" viewBox="0 0 964 182" fill="none" xmlns="http://www.w3.org/2000/svg">
<path d="M208 143.731H254.961C282.309 143.731 299.582 130.103 299.582 109.123C299.582 93.522 292.745 82.4043 272.234 77.5627C287.707 71.8246 292.565 63.2173 292.565 51.203C292.565 31.6573 277.811 18.2085 250.463 18.2085H208V143.731ZM233.19 121.137V90.4736H252.622C266.296 90.4736 274.033 96.0325 274.033 105.178C274.033 116.116 266.296 121.137 252.622 121.137H233.19ZM233.19 70.0314V40.6232H248.123C261.798 40.6232 267.016 46.5407 267.016 55.148C267.016 65.1898 261.798 70.0314 248.123 70.0314H233.19ZM319.054 181.208C341.005 181.208 352.7 168.477 360.617 149.649L402 50.4857H373.212L355.039 103.743C353.42 108.226 351.981 113.785 351.081 118.627C350.181 113.785 348.742 108.226 347.123 103.743L328.95 50.4857H299.622L336.687 139.427L335.427 143.372C332.729 151.621 326.791 157.539 317.435 157.539C313.476 157.539 310.058 157.18 306.459 156.283L302.861 179.415C307.719 180.85 314.196 181.208 319.054 181.208Z" fill="#111827"/>
<path d="M449.679 143.881H462.973V122.401H452.913C448.242 122.401 445.368 119.716 445.368 113.809V71.3848H465.129V50.7993H445.368V29.4979L421.115 32.0039V50.7993H408V71.3848H421.115V115.062C421.115 135.289 431.175 143.881 449.679 143.881ZM515.514 146.208C534.018 146.208 549.648 137.974 557.193 126.339L538.33 112.198C534.018 119.358 525.934 124.728 515.514 124.728C503.298 124.728 495.034 117.031 492.339 106.112H562.223C562.762 103.069 562.942 100.204 562.942 97.5194C562.942 70.6688 543.539 48.4723 515.514 48.4723C487.488 48.4723 467.188 70.6688 467.188 97.5194C467.188 124.37 486.59 146.208 515.514 146.208ZM492.339 88.0322C495.034 76.9339 503.657 69.2368 515.155 69.2368C527.012 69.2368 535.814 77.6499 538.509 88.0322H492.339ZM627.305 146.208C652.995 146.208 673.475 124.549 673.475 97.6984C673.475 70.8478 652.995 48.8303 627.305 48.8303C611.316 48.8303 602.872 55.2744 597.842 65.1197V13.2085H573.589V143.881H597.123V128.666C602.153 139.227 610.597 146.208 627.305 146.208ZM597.123 97.6984C597.123 83.1991 607.363 70.6688 623.352 70.6688C638.802 70.6688 649.222 83.0201 649.222 97.5194C649.222 111.661 638.802 124.37 623.352 124.37C607.363 124.37 597.123 112.198 597.123 97.6984ZM725.992 146.208C742.7 146.208 751.144 139.227 756.174 128.666V143.881H779.708V50.7993H755.635V65.4777C750.605 55.4534 742.161 48.8303 725.992 48.8303C700.302 48.8303 679.822 70.8478 679.822 97.6984C679.822 124.549 700.302 146.208 725.992 146.208ZM704.075 97.5194C704.075 83.0201 714.495 70.6688 729.945 70.6688C745.934 70.6688 756.174 83.1991 756.174 97.6984C756.174 112.198 745.934 124.37 729.945 124.37C714.495 124.37 704.075 111.661 704.075 97.5194ZM826.096 146.208C846.756 146.208 862.385 133.32 862.385 116.136C862.385 102.173 856.097 92.1493 828.97 85.1681C817.832 82.3041 816.394 79.44 816.394 76.2179C816.394 70.4898 821.425 67.9837 828.072 67.9837C834.36 67.9837 840.108 70.8478 844.6 78.008L862.206 64.5827C852.684 52.2314 842.624 48.4723 827.533 48.4723C805.615 48.4723 792.68 60.6446 792.68 76.9339C792.68 88.7482 796.453 100.025 821.425 105.933C836.156 109.334 838.492 112.019 838.492 116.852C838.492 122.401 833.821 126.518 825.557 126.518C817.652 126.518 810.466 122.759 803.639 115.062L787.291 129.919C797.531 140.838 810.286 146.208 826.096 146.208ZM916.572 146.208C935.076 146.208 950.706 137.974 958.251 126.339L939.388 112.198C935.076 119.358 926.992 124.728 916.572 124.728C904.356 124.728 896.092 117.031 893.397 106.112H963.281C963.82 103.069 964 100.204 964 97.5194C964 70.6688 944.598 48.4723 916.572 48.4723C888.546 48.4723 868.246 70.6688 868.246 97.5194C868.246 124.37 887.648 146.208 916.572 146.208ZM893.397 88.0322C896.092 76.9339 904.715 69.2368 916.213 69.2368C928.07 69.2368 936.873 77.6499 939.567 88.0322H893.397Z" fill="#111827"/>
<path d="M48.8996 161.628C31.6586 153.579 17.6263 139.954 9.06394 122.948C0.501517 105.941 -2.09234 86.5441 1.70032 67.8821C5.49298 49.22 15.4513 32.3795 29.9706 20.0744C44.4899 7.76948 62.7245 0.716349 81.7363 0.051681C100.748 -0.612987 119.43 5.14961 134.772 16.4107C150.113 27.6719 161.22 43.7757 166.303 62.1276C171.388 80.4794 170.151 100.01 162.795 117.573C155.438 135.135 142.389 149.708 125.752 158.941L84.6921 84.7856L48.8996 161.628Z" fill="#111827"/>
<path d="M125.67 158.986C114.002 165.444 100.975 169.053 87.6497 169.52C74.3246 169.986 61.0778 167.296 48.9874 161.668L84.6921 84.7855L125.67 158.986Z" fill="white"/>
<path d="M37.053 49.8512H133.263V90.5483C133.263 101.13 130.779 109.088 125.81 114.423C120.932 119.851 114.609 122.564 106.839 122.564C101.871 122.564 97.5343 121.344 93.8305 118.901C90.2169 116.549 87.4616 113.294 85.5645 109.134C83.8481 113.655 81.138 117.228 77.4341 119.851C73.7302 122.564 69.3488 123.92 64.2899 123.92C55.7981 123.92 49.1131 121.207 44.2349 115.781C39.4469 110.355 37.053 102.531 37.053 92.3118V49.8512ZM115.512 69.1145H94.6435V90.4126C94.6435 94.3014 95.5017 97.2863 97.2181 99.3661C99.0249 101.537 101.645 102.621 105.078 102.621C108.149 102.621 110.633 101.582 112.53 99.5023C114.517 97.5124 115.512 94.4823 115.512 90.4126V69.1145ZM76.7566 69.1145H54.8044V91.7692C54.8044 95.8385 55.753 98.8689 57.6501 100.859C59.5472 102.939 62.2573 103.978 65.7805 103.978C69.123 103.978 71.788 102.939 73.7754 100.859C75.7628 98.8689 76.7566 95.8385 76.7566 91.7692V69.1145Z" fill="white"/>
</svg>
