<svg width="820" height="173" viewBox="0 0 820 173" fill="none" xmlns="http://www.w3.org/2000/svg">
<path d="M46.1905 165.505C29.9046 157.91 16.6497 145.054 8.56169 129.008C0.473633 112.961 -1.97652 94.6593 1.60602 77.0506C5.18857 59.4418 14.5952 43.5519 28.3101 31.9414C42.025 20.3309 59.2495 13.6759 77.208 13.0487C95.1666 12.4216 112.813 17.8589 127.305 28.4844C141.796 39.11 152.288 54.3049 157.09 71.6209C161.893 88.9369 160.725 107.365 153.776 123.937C146.827 140.508 134.501 154.258 118.785 162.97L80 93L46.1905 165.505Z" fill="#111827"/>
<path d="M118.708 163.012C107.686 169.106 95.3806 172.511 82.7937 172.951C70.2068 173.391 57.694 170.853 46.2734 165.543L80 93L118.708 163.012Z" fill="white"/>
<path d="M35 60.0375L125.88 60.0375L125.88 98.4375C125.88 108.422 123.533 115.931 118.84 120.965C114.232 126.086 108.259 128.646 100.92 128.646C96.2267 128.646 92.1307 127.494 88.632 125.19C85.2187 122.971 82.616 119.899 80.824 115.974C79.2027 120.24 76.6427 123.611 73.144 126.086C69.6453 128.646 65.5067 129.926 60.728 129.926C52.7067 129.926 46.392 127.366 41.784 122.246C37.2613 117.126 35 109.744 35 100.102L35 60.0375ZM109.112 78.2135L89.4 78.2135V98.3095C89.4 101.979 90.2107 104.795 91.832 106.758C93.5387 108.806 96.0133 109.83 99.256 109.83C102.157 109.83 104.504 108.848 106.296 106.886C108.173 105.008 109.112 102.15 109.112 98.3095L109.112 78.2135ZM72.504 78.2135H51.768V99.5895C51.768 103.43 52.664 106.288 54.456 108.166C56.248 110.128 58.808 111.11 62.136 111.11C65.2933 111.11 67.8107 110.128 69.688 108.166C71.5653 106.288 72.504 103.43 72.504 99.5895V78.2135Z" fill="white"/>
<path d="M194.617 142H233.245C255.741 142 269.949 130.752 269.949 113.436C269.949 100.56 264.325 91.384 247.453 87.388C260.181 82.652 264.177 75.548 264.177 65.632C264.177 49.5 252.041 38.4 229.545 38.4H194.617V142ZM215.337 123.352V98.044H231.321C242.569 98.044 248.933 102.632 248.933 110.18C248.933 119.208 242.569 123.352 231.321 123.352H215.337ZM215.337 81.172V56.9H227.621C238.869 56.9 243.161 61.784 243.161 68.888C243.161 77.176 238.869 81.172 227.621 81.172H215.337ZM285.965 172.932C304.021 172.932 313.641 162.424 320.153 146.884L354.193 65.04H330.513L315.565 108.996C314.233 112.696 313.049 117.284 312.309 121.28C311.569 117.284 310.385 112.696 309.053 108.996L294.105 65.04H269.981L300.469 138.448L299.433 141.704C297.213 148.512 292.329 153.396 284.633 153.396C281.377 153.396 278.565 153.1 275.605 152.36L272.645 171.452C276.641 172.636 281.969 172.932 285.965 172.932ZM389.226 142H400.178V124.24H391.89C388.042 124.24 385.674 122.02 385.674 117.136V82.06H401.954V65.04H385.674V47.428L365.694 49.5V65.04H354.89V82.06H365.694V118.172C365.694 134.896 373.982 142 389.226 142ZM443.461 143.924C458.705 143.924 471.581 137.116 477.797 127.496L462.257 115.804C458.705 121.724 452.045 126.164 443.461 126.164C433.397 126.164 426.589 119.8 424.369 110.772H481.941C482.385 108.256 482.533 105.888 482.533 103.668C482.533 81.468 466.549 63.116 443.461 63.116C420.373 63.116 403.649 81.468 403.649 103.668C403.649 125.868 419.633 143.924 443.461 143.924ZM424.369 95.824C426.589 86.648 433.693 80.284 443.165 80.284C452.933 80.284 460.185 87.24 462.405 95.824H424.369ZM535.557 143.924C556.721 143.924 573.593 126.016 573.593 103.816C573.593 81.616 556.721 63.412 535.557 63.412C522.385 63.412 515.429 68.74 511.285 76.88V33.96H491.305V142H510.693V129.42C514.837 138.152 521.793 143.924 535.557 143.924ZM510.693 103.816C510.693 91.828 519.129 81.468 532.301 81.468C545.029 81.468 553.613 91.68 553.613 103.668C553.613 115.36 545.029 125.868 532.301 125.868C519.129 125.868 510.693 115.804 510.693 103.816ZM616.857 143.924C630.621 143.924 637.577 138.152 641.721 129.42V142H661.109V65.04H641.277V77.176C637.133 68.888 630.177 63.412 616.857 63.412C595.693 63.412 578.821 81.616 578.821 103.816C578.821 126.016 595.693 143.924 616.857 143.924ZM598.801 103.668C598.801 91.68 607.385 81.468 620.113 81.468C633.285 81.468 641.721 91.828 641.721 103.816C641.721 115.804 633.285 125.868 620.113 125.868C607.385 125.868 598.801 115.36 598.801 103.668ZM699.325 143.924C716.345 143.924 729.221 133.268 729.221 119.06C729.221 107.516 724.041 99.228 701.693 93.456C692.517 91.088 691.333 88.72 691.333 86.056C691.333 81.32 695.477 79.248 700.953 79.248C706.133 79.248 710.869 81.616 714.569 87.536L729.073 76.436C721.229 66.224 712.941 63.116 700.509 63.116C682.453 63.116 671.797 73.18 671.797 86.648C671.797 96.416 674.905 105.74 695.477 110.624C707.613 113.436 709.537 115.656 709.537 119.652C709.537 124.24 705.689 127.644 698.881 127.644C692.369 127.644 686.449 124.536 680.825 118.172L667.357 130.456C675.793 139.484 686.301 143.924 699.325 143.924ZM773.86 143.924C789.104 143.924 801.98 137.116 808.196 127.496L792.656 115.804C789.104 121.724 782.444 126.164 773.86 126.164C763.796 126.164 756.988 119.8 754.768 110.772H812.34C812.784 108.256 812.932 105.888 812.932 103.668C812.932 81.468 796.948 63.116 773.86 63.116C750.772 63.116 734.048 81.468 734.048 103.668C734.048 125.868 750.032 143.924 773.86 143.924ZM754.768 95.824C756.988 86.648 764.092 80.284 773.564 80.284C783.332 80.284 790.584 87.24 792.804 95.824H754.768Z" fill="#111827"/>
</svg>
