<svg width="554" height="125" viewBox="0 0 554 125" fill="none" xmlns="http://www.w3.org/2000/svg">
<path d="M0.6 96V5.12H39C48.984 5.12 56.4933 7.46666 61.528 12.16C66.648 16.768 69.208 22.7413 69.208 30.08C69.208 34.7733 68.056 38.8693 65.752 42.368C63.5333 45.7813 60.4613 48.384 56.536 50.176C60.8027 51.7973 64.1733 54.3573 66.648 57.856C69.208 61.3547 70.488 65.4933 70.488 70.272C70.488 78.2933 67.928 84.608 62.808 89.216C57.688 93.7387 50.3067 96 40.664 96H0.6ZM18.776 21.888V41.6H38.872C42.5413 41.6 45.3573 40.7893 47.32 39.168C49.368 37.4613 50.392 34.9867 50.392 31.744C50.392 28.8427 49.4107 26.496 47.448 24.704C45.5707 22.8267 42.712 21.888 38.872 21.888H18.776ZM18.776 58.496V79.232H40.152C43.992 79.232 46.8507 78.336 48.728 76.544C50.6907 74.752 51.672 72.192 51.672 68.864C51.672 65.7067 50.6907 63.1893 48.728 61.312C46.8507 59.4347 43.992 58.496 40.152 58.496H18.776ZM76.125 28.928H95.453L111.581 73.728L127.837 28.928H146.781L117.725 101.504C114.482 109.611 110.6 115.371 106.077 118.784C101.554 122.283 96.1357 124.032 89.821 124.032C88.1997 124.032 86.365 123.904 84.317 123.648V108.032C85.341 108.203 86.493 108.288 87.773 108.288C90.845 108.288 93.4477 107.605 95.581 106.24C97.7143 104.96 99.5917 102.315 101.213 98.304L102.621 94.976L76.125 28.928ZM186.558 95.616C184.339 96.128 181.481 96.384 177.982 96.384C170.814 96.384 165.566 94.6347 162.238 91.136C158.995 87.6373 157.374 82.56 157.374 75.904V43.264H148.286V28.928H157.374V12.288H175.55V28.928H186.686V43.264H175.55V73.984C175.55 76.2027 176.062 77.8667 177.086 78.976C178.195 80 179.945 80.512 182.334 80.512C183.87 80.512 185.278 80.2987 186.558 79.872V95.616ZM256.605 77.952C254.045 84.096 250.162 88.9173 244.957 92.416C239.837 95.8293 233.522 97.536 226.013 97.536C219.442 97.536 213.597 96.0427 208.477 93.056C203.357 90.0693 199.346 85.9307 196.445 80.64C193.629 75.264 192.221 69.1627 192.221 62.336C192.221 55.7653 193.629 49.8347 196.445 44.544C199.346 39.168 203.357 34.9867 208.477 32C213.597 28.928 219.4 27.392 225.885 27.392C232.37 27.392 238.13 28.928 243.165 32C248.2 34.9867 252.125 39.168 254.941 44.544C257.757 49.8347 259.165 55.7653 259.165 62.336C259.165 64.2133 259.08 66.0053 258.909 67.712H210.269C210.866 72.32 212.573 75.8613 215.389 78.336C218.205 80.7253 221.917 81.92 226.525 81.92C229.597 81.92 232.285 81.28 234.589 80C236.893 78.72 238.642 76.7573 239.837 74.112L256.605 77.952ZM225.757 41.984C221.661 41.984 218.29 43.136 215.645 45.44C213 47.6587 211.293 50.7307 210.525 54.656H240.989C240.306 50.816 238.642 47.744 235.997 45.44C233.352 43.136 229.938 41.984 225.757 41.984ZM289.621 36.096C291.498 33.6213 294.144 31.5733 297.557 29.952C301.056 28.2453 305.024 27.392 309.461 27.392C315.776 27.392 321.237 28.9707 325.845 32.128C330.538 35.2 334.122 39.3813 336.597 44.672C339.072 49.9627 340.309 55.8933 340.309 62.464C340.309 69.0347 339.072 74.9653 336.597 80.256C334.122 85.5467 330.538 89.7707 325.845 92.928C321.237 96 315.776 97.536 309.461 97.536C304.768 97.536 300.586 96.6827 296.917 94.976C293.248 93.2693 290.346 90.88 288.213 87.808V96H271.445V-7.62939e-06H289.621V36.096ZM289.109 62.464C289.109 68.0107 290.602 72.576 293.589 76.16C296.661 79.744 300.672 81.536 305.621 81.536C310.57 81.536 314.538 79.744 317.525 76.16C320.597 72.576 322.133 68.0107 322.133 62.464C322.133 56.9173 320.597 52.352 317.525 48.768C314.538 45.184 310.57 43.392 305.621 43.392C300.672 43.392 296.661 45.184 293.589 48.768C290.602 52.352 289.109 56.9173 289.109 62.464ZM350.903 47.872C352.012 41.8987 354.956 36.992 359.735 33.152C364.599 29.312 371.596 27.392 380.727 27.392C390.455 27.392 397.794 29.568 402.743 33.92C407.692 38.272 410.167 44.416 410.167 52.352V78.336C410.167 81.2373 411.362 82.688 413.751 82.688C414.604 82.688 415.244 82.6453 415.671 82.56V96.384C414.647 96.7253 413.068 96.896 410.935 96.896C403.255 96.896 398.178 94.1227 395.703 88.576C390.156 94.5493 382.434 97.536 372.535 97.536C364.77 97.536 358.882 95.7013 354.871 92.032C350.946 88.3627 348.983 83.6267 348.983 77.824C348.983 65.9627 357.687 58.5813 375.095 55.68L392.887 52.736V52.224C392.887 45.6533 388.834 42.368 380.727 42.368C373.303 42.368 369.164 45.2693 368.311 51.072L350.903 47.872ZM376.887 68.608C373.218 69.2907 370.572 70.272 368.951 71.552C367.33 72.7467 366.519 74.368 366.519 76.416C366.519 78.72 367.287 80.4693 368.823 81.664C370.359 82.8587 372.962 83.456 376.631 83.456C381.836 83.456 385.847 82.0907 388.663 79.36C391.479 76.544 392.887 72.7893 392.887 68.096V65.664L376.887 68.608ZM439.998 73.856C440.169 76.5013 441.193 78.6773 443.07 80.384C444.947 82.0907 447.678 82.944 451.262 82.944C454.675 82.944 457.278 82.3893 459.07 81.28C460.862 80.1707 461.758 78.6773 461.758 76.8C461.758 74.8373 460.734 73.4293 458.686 72.576C456.723 71.7227 453.523 70.8693 449.086 70.016C444.137 69.1627 440.041 68.1813 436.798 67.072C433.555 65.8773 430.739 63.9147 428.35 61.184C425.961 58.368 424.766 54.4853 424.766 49.536C424.766 45.44 425.875 41.728 428.094 38.4C430.313 34.9867 433.427 32.2987 437.438 30.336C441.534 28.3733 446.27 27.392 451.646 27.392C460.094 27.392 466.494 29.3973 470.846 33.408C475.283 37.3333 477.971 42.0267 478.91 47.488L461.758 50.688C461.587 48.128 460.606 46.0373 458.814 44.416C457.107 42.7947 454.675 41.984 451.518 41.984C448.617 41.984 446.355 42.624 444.734 43.904C443.113 45.0987 442.302 46.6347 442.302 48.512C442.302 50.4747 443.283 51.8827 445.246 52.736C447.294 53.504 450.451 54.272 454.718 55.04C459.667 55.8933 463.763 56.8747 467.006 57.984C470.334 59.0933 473.193 61.0987 475.582 64C477.971 66.816 479.166 70.8267 479.166 76.032C479.166 80.128 478.014 83.7973 475.71 87.04C473.491 90.2827 470.249 92.8427 465.982 94.72C461.715 96.5973 456.638 97.536 450.75 97.536C441.534 97.536 434.622 95.616 430.014 91.776C425.491 87.936 422.803 82.816 421.95 76.416L439.998 73.856ZM551.355 77.952C548.795 84.096 544.912 88.9173 539.707 92.416C534.587 95.8293 528.272 97.536 520.763 97.536C514.192 97.536 508.347 96.0427 503.227 93.056C498.107 90.0693 494.096 85.9307 491.195 80.64C488.379 75.264 486.971 69.1627 486.971 62.336C486.971 55.7653 488.379 49.8347 491.195 44.544C494.096 39.168 498.107 34.9867 503.227 32C508.347 28.928 514.15 27.392 520.635 27.392C527.12 27.392 532.88 28.928 537.915 32C542.95 34.9867 546.875 39.168 549.691 44.544C552.507 49.8347 553.915 55.7653 553.915 62.336C553.915 64.2133 553.83 66.0053 553.659 67.712H505.019C505.616 72.32 507.323 75.8613 510.139 78.336C512.955 80.7253 516.667 81.92 521.275 81.92C524.347 81.92 527.035 81.28 529.339 80C531.643 78.72 533.392 76.7573 534.587 74.112L551.355 77.952ZM520.507 41.984C516.411 41.984 513.04 43.136 510.395 45.44C507.75 47.6587 506.043 50.7307 505.275 54.656H535.739C535.056 50.816 533.392 47.744 530.747 45.44C528.102 43.136 524.688 41.984 520.507 41.984Z" fill="#3B82F6"/>
</svg>
