<svg width="828" height="169" viewBox="0 0 828 169" fill="none" xmlns="http://www.w3.org/2000/svg">
<path d="M200.8 137V34.76H244C255.232 34.76 263.68 37.4 269.344 42.68C275.104 47.864 277.984 54.584 277.984 62.84C277.984 68.12 276.688 72.728 274.096 76.664C271.6 80.504 268.144 83.432 263.728 85.448C268.528 87.272 272.32 90.152 275.104 94.088C277.984 98.024 279.424 102.68 279.424 108.056C279.424 117.08 276.544 124.184 270.784 129.368C265.024 134.456 256.72 137 245.872 137H200.8ZM221.248 53.624V75.8H243.856C247.984 75.8 251.152 74.888 253.36 73.064C255.664 71.144 256.816 68.36 256.816 64.712C256.816 61.448 255.712 58.808 253.504 56.792C251.392 54.68 248.176 53.624 243.856 53.624H221.248ZM221.248 94.808V118.136H245.296C249.616 118.136 252.832 117.128 254.944 115.112C257.152 113.096 258.256 110.216 258.256 106.472C258.256 102.92 257.152 100.088 254.944 97.976C252.832 95.864 249.616 94.808 245.296 94.808H221.248ZM285.766 61.544H307.51L325.654 111.944L343.942 61.544H365.254L332.566 143.192C328.918 152.312 324.55 158.792 319.462 162.632C314.374 166.568 308.278 168.536 301.174 168.536C299.35 168.536 297.286 168.392 294.982 168.104V150.536C296.134 150.728 297.43 150.824 298.87 150.824C302.326 150.824 305.254 150.056 307.654 148.52C310.054 147.08 312.166 144.104 313.99 139.592L315.574 135.848L285.766 61.544ZM410.003 136.568C407.507 137.144 404.291 137.432 400.355 137.432C392.291 137.432 386.387 135.464 382.643 131.528C378.995 127.592 377.171 121.88 377.171 114.392V77.672H366.947V61.544H377.171V42.824H397.619V61.544H410.147V77.672H397.619V112.232C397.619 114.728 398.195 116.6 399.347 117.848C400.595 119 402.563 119.576 405.251 119.576C406.979 119.576 408.563 119.336 410.003 118.856V136.568ZM488.806 116.696C485.926 123.608 481.558 129.032 475.702 132.968C469.942 136.808 462.838 138.728 454.39 138.728C446.998 138.728 440.422 137.048 434.662 133.688C428.902 130.328 424.39 125.672 421.126 119.72C417.958 113.672 416.374 106.808 416.374 99.128C416.374 91.736 417.958 85.064 421.126 79.112C424.39 73.064 428.902 68.36 434.662 65C440.422 61.544 446.95 59.816 454.246 59.816C461.542 59.816 468.022 61.544 473.686 65C479.35 68.36 483.766 73.064 486.934 79.112C490.102 85.064 491.686 91.736 491.686 99.128C491.686 101.24 491.59 103.256 491.398 105.176H436.678C437.35 110.36 439.27 114.344 442.438 117.128C445.606 119.816 449.782 121.16 454.966 121.16C458.422 121.16 461.446 120.44 464.038 119C466.63 117.56 468.598 115.352 469.942 112.376L488.806 116.696ZM454.102 76.232C449.494 76.232 445.702 77.528 442.726 80.12C439.75 82.616 437.83 86.072 436.966 90.488H471.238C470.47 86.168 468.598 82.712 465.622 80.12C462.646 77.528 458.806 76.232 454.102 76.232ZM525.949 69.608C528.061 66.824 531.037 64.52 534.877 62.696C538.813 60.776 543.277 59.816 548.269 59.816C555.373 59.816 561.517 61.592 566.701 65.144C571.981 68.6 576.013 73.304 578.797 79.256C581.581 85.208 582.973 91.88 582.973 99.272C582.973 106.664 581.581 113.336 578.797 119.288C576.013 125.24 571.981 129.992 566.701 133.544C561.517 137 555.373 138.728 548.269 138.728C542.989 138.728 538.285 137.768 534.157 135.848C530.029 133.928 526.765 131.24 524.365 127.784V137H505.501V29H525.949V69.608ZM525.373 99.272C525.373 105.512 527.053 110.648 530.413 114.68C533.869 118.712 538.381 120.728 543.949 120.728C549.517 120.728 553.981 118.712 557.341 114.68C560.797 110.648 562.525 105.512 562.525 99.272C562.525 93.032 560.797 87.896 557.341 83.864C553.981 79.832 549.517 77.816 543.949 77.816C538.381 77.816 533.869 79.832 530.413 83.864C527.053 87.896 525.373 93.032 525.373 99.272ZM594.891 82.856C596.139 76.136 599.451 70.616 604.827 66.296C610.299 61.976 618.171 59.816 628.443 59.816C639.387 59.816 647.643 62.264 653.211 67.16C658.779 72.056 661.563 78.968 661.563 87.896V117.128C661.563 120.392 662.907 122.024 665.595 122.024C666.555 122.024 667.275 121.976 667.755 121.88V137.432C666.603 137.816 664.827 138.008 662.427 138.008C653.787 138.008 648.075 134.888 645.291 128.648C639.051 135.368 630.363 138.728 619.227 138.728C610.491 138.728 603.867 136.664 599.355 132.536C594.939 128.408 592.731 123.08 592.731 116.552C592.731 103.208 602.523 94.904 622.107 91.64L642.123 88.328V87.752C642.123 80.36 637.563 76.664 628.443 76.664C620.091 76.664 615.435 79.928 614.475 86.456L594.891 82.856ZM624.123 106.184C619.995 106.952 617.019 108.056 615.195 109.496C613.371 110.84 612.459 112.664 612.459 114.968C612.459 117.56 613.323 119.528 615.051 120.872C616.779 122.216 619.707 122.888 623.835 122.888C629.691 122.888 634.203 121.352 637.371 118.28C640.539 115.112 642.123 110.888 642.123 105.608V102.872L624.123 106.184ZM695.123 112.088C695.315 115.064 696.467 117.512 698.579 119.432C700.691 121.352 703.763 122.312 707.795 122.312C711.635 122.312 714.563 121.688 716.579 120.44C718.595 119.192 719.603 117.512 719.603 115.4C719.603 113.192 718.451 111.608 716.147 110.648C713.939 109.688 710.339 108.728 705.347 107.768C699.779 106.808 695.171 105.704 691.523 104.456C687.875 103.112 684.707 100.904 682.019 97.832C679.331 94.664 677.987 90.296 677.987 84.728C677.987 80.12 679.235 75.944 681.731 72.2C684.227 68.36 687.731 65.336 692.243 63.128C696.851 60.92 702.179 59.816 708.227 59.816C717.731 59.816 724.931 62.072 729.827 66.584C734.819 71 737.843 76.28 738.899 82.424L719.603 86.024C719.411 83.144 718.307 80.792 716.291 78.968C714.371 77.144 711.635 76.232 708.083 76.232C704.819 76.232 702.275 76.952 700.451 78.392C698.627 79.736 697.715 81.464 697.715 83.576C697.715 85.784 698.819 87.368 701.027 88.328C703.331 89.192 706.883 90.056 711.683 90.92C717.251 91.88 721.859 92.984 725.507 94.232C729.251 95.48 732.467 97.736 735.155 101C737.843 104.168 739.187 108.68 739.187 114.536C739.187 119.144 737.891 123.272 735.299 126.92C732.803 130.568 729.155 133.448 724.355 135.56C719.555 137.672 713.843 138.728 707.219 138.728C696.851 138.728 689.075 136.568 683.891 132.248C678.803 127.928 675.779 122.168 674.819 114.968L695.123 112.088ZM820.399 116.696C817.519 123.608 813.151 129.032 807.295 132.968C801.535 136.808 794.431 138.728 785.983 138.728C778.591 138.728 772.015 137.048 766.255 133.688C760.495 130.328 755.983 125.672 752.719 119.72C749.551 113.672 747.967 106.808 747.967 99.128C747.967 91.736 749.551 85.064 752.719 79.112C755.983 73.064 760.495 68.36 766.255 65C772.015 61.544 778.543 59.816 785.839 59.816C793.135 59.816 799.615 61.544 805.279 65C810.943 68.36 815.359 73.064 818.527 79.112C821.695 85.064 823.279 91.736 823.279 99.128C823.279 101.24 823.183 103.256 822.991 105.176H768.271C768.943 110.36 770.863 114.344 774.031 117.128C777.199 119.816 781.375 121.16 786.559 121.16C790.015 121.16 793.039 120.44 795.631 119C798.223 117.56 800.191 115.352 801.535 112.376L820.399 116.696ZM785.695 76.232C781.087 76.232 777.295 77.528 774.319 80.12C771.343 82.616 769.423 86.072 768.559 90.488H802.831C802.063 86.168 800.191 82.712 797.215 80.12C794.239 77.528 790.399 76.232 785.695 76.232Z" fill="#111827"/>
<path d="M46.1905 158.505C29.9046 150.91 16.6497 138.054 8.56169 122.008C0.473636 105.961 -1.97652 87.6593 1.60602 70.0506C5.18857 52.4418 14.5952 36.5519 28.3101 24.9414C42.025 13.3309 59.2495 6.67586 77.208 6.04873C95.1666 5.4216 112.813 10.8589 127.305 21.4844C141.796 32.11 152.288 47.3049 157.09 64.6209C161.893 81.9369 160.725 100.365 153.776 116.937C146.827 133.508 134.501 147.258 118.785 155.97L80 86L46.1905 158.505Z" fill="#111827"/>
<path d="M118.708 156.012C107.686 162.106 95.3806 165.511 82.7937 165.951C70.2068 166.391 57.694 163.853 46.2734 158.543L80 86L118.708 156.012Z" fill="white"/>
<path d="M35 53.0375L125.88 53.0375L125.88 91.4375C125.88 101.422 123.533 108.931 118.84 113.965C114.232 119.086 108.259 121.646 100.92 121.646C96.2267 121.646 92.1307 120.494 88.632 118.19C85.2187 115.971 82.616 112.899 80.824 108.974C79.2027 113.24 76.6427 116.611 73.144 119.086C69.6453 121.646 65.5067 122.926 60.728 122.926C52.7067 122.926 46.392 120.366 41.784 115.246C37.2613 110.126 35 102.744 35 93.1015L35 53.0375ZM109.112 71.2135L89.4 71.2135V91.3095C89.4 94.9788 90.2107 97.7948 91.832 99.7575C93.5387 101.806 96.0133 102.83 99.256 102.83C102.157 102.83 104.504 101.848 106.296 99.8855C108.173 98.0082 109.112 95.1495 109.112 91.3095L109.112 71.2135ZM72.504 71.2135H51.768V92.5895C51.768 96.4295 52.664 99.2882 54.456 101.166C56.248 103.128 58.808 104.11 62.136 104.11C65.2933 104.11 67.8107 103.128 69.688 101.166C71.5653 99.2882 72.504 96.4295 72.504 92.5895V71.2135Z" fill="white"/>
</svg>
