<?xml version="1.0" ?><svg id="Line_x5F_editable" style="enable-background:new 0 0 32 32;" version="1.1" viewBox="0 0 32 32" xml:space="preserve" xmlns="http://www.w3.org/2000/svg" xmlns:xlink="http://www.w3.org/1999/xlink"><style type="text/css">
	.st0{fill:none;stroke:#000000;stroke-width:2;stroke-linecap:round;stroke-linejoin:round;stroke-miterlimit:10;}
</style><path class="st0" d="M5,17c0-7,3.806-10,8.5-10c4.548,0,8.261,2.815,8.489,9.355"/><path class="st0" d="M27,13c-2.607,0-3.94,1.699-4.552,2.882C22.098,16.56,21.416,17,20.654,17H6c-3,0-4,2.999-4,4  c1.894-1.161,3.167-1.499,4.456,0l-0.397,1.589C5.753,23.814,6.679,25,7.941,25h0c0.89,0,1.666-0.606,1.882-1.47L10.456,21h7  l0.633,2.53c0.216,0.864,0.992,1.47,1.882,1.47h0c1.262,0,2.189-1.186,1.882-2.411L21.456,21c0,0,8.544-0.001,8.544-4  C30,15.537,29.461,13,27,13z"/><circle cx="27" cy="16" r="1"/><polyline class="st0" points="8.707,8.561 11,12 9,17 "/><polyline class="st0" points="18.293,8.561 16,12 18,17 "/><line class="st0" x1="16" x2="11" y1="12" y2="12"/></svg>