<svg width="480" height="480" viewBox="0 0 480 480" fill="none" xmlns="http://www.w3.org/2000/svg">
<path d="M118.011 37L103 63L87.9889 37H38L103 149.585L168 37H118.011Z" fill="#41B883"/>
<path d="M118.011 37L103 63L87.9889 37H64L103 104.549L142 37H118.011Z" fill="#34495E"/>
<path d="M164.64 186.937C164.056 186.937 163.91 186.645 164.202 186.207L167.269 182.263C167.561 181.825 168.292 181.533 168.876 181.533H221.021C221.606 181.533 221.752 181.971 221.459 182.409L218.976 186.207C218.684 186.645 217.954 187.083 217.516 187.083L164.64 186.937Z" fill="#2DBCAF"/>
<path d="M142.584 200.375C142 200.375 141.854 200.083 142.146 199.645L145.213 195.701C145.506 195.263 146.236 194.971 146.82 194.971H213.426C214.01 194.971 214.302 195.409 214.156 195.847L212.988 199.353C212.842 199.937 212.257 200.229 211.673 200.229L142.584 200.375Z" fill="#2DBCAF"/>
<path d="M177.932 213.813C177.348 213.813 177.202 213.375 177.494 212.937L179.539 209.285C179.831 208.847 180.415 208.409 180.999 208.409H210.212C210.797 208.409 211.089 208.847 211.089 209.431L210.797 212.937C210.797 213.521 210.212 213.959 209.774 213.959L177.932 213.813Z" fill="#2DBCAF"/>
<path d="M329.548 184.308C320.346 186.645 314.065 188.398 305.009 190.735C302.818 191.319 302.672 191.465 300.773 189.274C298.582 186.791 296.975 185.184 293.908 183.724C284.706 179.196 275.796 180.51 267.47 185.915C257.538 192.342 252.425 201.836 252.571 213.667C252.717 225.352 260.751 234.993 272.29 236.599C282.223 237.914 290.548 234.408 297.121 226.959C298.436 225.352 299.604 223.6 301.065 221.555C295.807 221.555 289.234 221.555 272.874 221.555C269.807 221.555 269.077 219.656 270.099 217.173C271.998 212.645 275.504 205.049 277.548 201.252C277.987 200.375 279.009 198.915 281.2 198.915C288.649 198.915 316.11 198.915 334.368 198.915C334.076 202.858 334.076 206.802 333.491 210.746C331.885 221.263 327.941 230.903 321.514 239.375C310.997 253.251 297.267 261.869 279.886 264.206C265.571 266.105 252.279 263.329 240.594 254.565C229.785 246.386 223.65 235.577 222.044 222.139C220.145 206.218 224.819 191.903 234.459 179.342C244.83 165.758 258.56 157.14 275.358 154.073C289.088 151.589 302.234 153.196 314.065 161.23C321.806 166.342 327.357 173.353 331.008 181.825C331.885 183.14 331.3 183.87 329.548 184.308Z" fill="#2DBCAF"/>
<path d="M377.895 265.082C364.603 264.79 352.48 260.992 342.255 252.228C333.638 244.779 328.233 235.285 326.48 224.038C323.851 207.532 328.379 192.926 338.312 179.926C348.974 165.904 361.828 158.601 379.21 155.533C394.109 152.904 408.131 154.365 420.838 162.983C432.378 170.87 439.535 181.533 441.434 195.555C443.917 215.274 438.22 231.341 424.636 245.071C414.996 254.858 403.165 260.992 389.58 263.768C385.637 264.498 381.693 264.644 377.895 265.082ZM412.659 206.072C412.513 204.173 412.513 202.712 412.221 201.252C409.591 186.791 396.299 178.612 382.423 181.825C368.839 184.892 360.075 193.51 356.862 207.24C354.233 218.633 359.783 230.173 370.3 234.847C378.333 238.352 386.367 237.914 394.109 233.97C405.648 227.982 411.928 218.633 412.659 206.072Z" fill="#2DBCAF"/>
<path fill-rule="evenodd" clip-rule="evenodd" d="M210.517 65C203.712 65 199.46 68.382 197.758 75.146C200.31 71.764 203.287 70.496 206.689 71.341C208.63 71.823 210.018 73.223 211.553 74.773C214.055 77.297 216.951 80.218 223.275 80.218C230.079 80.218 234.332 76.836 236.033 70.073C233.482 73.455 230.505 74.723 227.103 73.877C225.161 73.395 223.773 71.995 222.238 70.446C219.736 67.92 216.841 65 210.517 65ZM197.758 80.218C190.954 80.218 186.701 83.6 185 90.364C187.552 86.982 190.529 85.714 193.93 86.559C195.872 87.041 197.26 88.441 198.795 89.991C201.297 92.515 204.192 95.436 210.517 95.436C217.321 95.436 221.574 92.055 223.275 85.291C220.723 88.673 217.746 89.941 214.344 89.096C212.403 88.613 211.015 87.213 209.48 85.664C206.978 83.14 204.082 80.218 197.758 80.218V80.218Z" fill="#06B6D4"/>
<path fill-rule="evenodd" clip-rule="evenodd" d="M261.546 77.825H257.093V86.392C257.093 88.677 258.601 88.641 261.546 88.498V91.961C255.584 92.675 253.214 91.033 253.214 86.392V77.825H249.91V74.112H253.214V69.318L257.093 68.175V74.112H261.546V77.825ZM278.52 74.112H282.398V91.961H278.52V89.391C277.155 91.282 275.036 92.425 272.235 92.425C267.351 92.425 263.293 88.32 263.293 83.036C263.293 77.718 267.351 73.648 272.235 73.648C275.036 73.648 277.155 74.79 278.52 76.647V74.112V74.112ZM272.846 88.748C276.078 88.748 278.52 86.356 278.52 83.036C278.52 79.716 276.078 77.325 272.846 77.325C269.614 77.325 267.172 79.717 267.172 83.036C267.172 86.356 269.614 88.748 272.846 88.748ZM288.862 71.435C287.498 71.435 286.385 70.293 286.385 68.972C286.388 68.3173 286.651 67.6906 287.115 67.229C287.579 66.7674 288.207 66.5085 288.862 66.509C289.517 66.5082 290.145 66.767 290.61 67.2286C291.074 67.6903 291.337 68.3172 291.34 68.972C291.34 70.292 290.227 71.435 288.862 71.435ZM286.923 91.961V74.112H290.802V91.961H286.923ZM295.291 91.961V65.9H299.169V91.96H295.291V91.961ZM324.344 74.112H328.438L322.8 91.961H318.993L315.258 79.931L311.487 91.961H307.681L302.042 74.112H306.136L309.62 86.427L313.391 74.112H317.09L320.824 86.427L324.344 74.112V74.112ZM333.25 71.435C331.885 71.435 330.772 70.293 330.772 68.972C330.775 68.3172 331.038 67.6903 331.502 67.2286C331.967 66.767 332.595 66.5082 333.25 66.509C333.905 66.5082 334.533 66.767 334.998 67.2286C335.462 67.6903 335.725 68.3172 335.728 68.972C335.728 70.292 334.615 71.435 333.25 71.435ZM331.311 91.961V74.112H335.189V91.961H331.311V91.961ZM349.123 73.648C353.145 73.648 356.018 76.361 356.018 81.002V91.96H352.14V81.394C352.14 78.681 350.56 77.254 348.118 77.254C345.568 77.254 343.557 78.753 343.557 82.394V91.961H339.678V74.112H343.557V76.397C344.742 74.541 346.681 73.648 349.123 73.648V73.648ZM374.405 66.973H378.284V91.96H374.405V89.39C373.041 91.282 370.922 92.424 368.121 92.424C363.237 92.424 359.179 88.319 359.179 83.035C359.179 77.717 363.237 73.647 368.121 73.647C370.922 73.647 373.041 74.789 374.405 76.646V66.973V66.973ZM368.731 88.748C371.963 88.748 374.405 86.356 374.405 83.036C374.405 79.716 371.963 77.325 368.731 77.325C365.499 77.325 363.057 79.717 363.057 83.036C363.057 86.356 365.499 88.748 368.731 88.748ZM391.284 92.425C385.861 92.425 381.803 88.32 381.803 83.036C381.803 77.718 385.861 73.648 391.284 73.648C394.803 73.648 397.856 75.468 399.292 78.253L395.952 80.181C395.162 78.503 393.403 77.432 391.248 77.432C388.088 77.432 385.682 79.824 385.682 83.036C385.682 86.249 388.088 88.641 391.248 88.641C393.403 88.641 395.162 87.534 396.024 85.892L399.364 87.784C397.856 90.604 394.803 92.424 391.284 92.424V92.425ZM405.756 79.038C405.756 82.287 415.417 80.323 415.417 86.928C415.417 90.498 412.292 92.425 408.414 92.425C404.823 92.425 402.237 90.818 401.088 88.248L404.428 86.321C405.002 87.927 406.439 88.891 408.414 88.891C410.138 88.891 411.466 88.32 411.466 86.891C411.466 83.715 401.806 85.5 401.806 79.11C401.806 75.754 404.715 73.648 408.378 73.648C411.323 73.648 413.765 75.005 415.022 77.361L411.754 79.181C411.107 77.789 409.85 77.146 408.378 77.146C406.977 77.146 405.756 77.753 405.756 79.038V79.038ZM422.312 79.038C422.312 82.287 431.972 80.323 431.972 86.928C431.972 90.498 428.848 92.425 424.969 92.425C421.378 92.425 418.793 90.818 417.643 88.248L420.983 86.321C421.558 87.927 422.994 88.891 424.969 88.891C426.693 88.891 428.022 88.32 428.022 86.891C428.022 83.715 418.362 85.5 418.362 79.11C418.362 75.754 421.27 73.648 424.934 73.648C427.878 73.648 430.32 75.005 431.577 77.361L428.309 79.181C427.663 77.789 426.406 77.146 424.934 77.146C423.533 77.146 422.312 77.753 422.312 79.038V79.038Z" fill="black"/>
<path d="M177.531 339.219C172.709 339.219 168.787 340.646 165.781 343.5C162.775 346.356 161.25 350.1 161.25 354.688C161.25 357.065 161.629 359.232 162.375 361.219C163.121 363.209 164.283 365.053 165.844 366.719C167.405 368.386 170.53 370.651 175.188 373.531C180.903 377.02 184.643 379.852 186.438 382.062C188.234 384.271 189.125 386.586 189.125 389C189.125 392.231 188.061 394.811 185.875 396.75C183.685 398.69 180.756 399.656 177.125 399.656C173.295 399.656 169.959 398.306 167.094 395.625C164.229 392.94 162.782 389.389 162.75 384.937H160.969V401.094H162.75C163.294 399.564 164.046 398.781 165.031 398.781C165.505 398.781 166.615 399.108 168.344 399.719C172.55 401.215 176.004 401.937 178.719 401.937C183.398 401.937 187.391 400.299 190.719 396.969C194.041 393.64 195.719 389.625 195.719 384.937C195.719 381.303 194.611 378.069 192.438 375.25C190.264 372.428 186.036 369.145 179.719 365.375C174.282 362.109 170.754 359.449 169.125 357.375C167.494 355.304 166.656 353.014 166.656 350.5C166.656 347.781 167.655 345.597 169.625 343.969C171.595 342.339 174.176 341.531 177.406 341.531C181.041 341.531 184.071 342.61 186.469 344.781C188.864 346.956 190.249 349.97 190.656 353.844H192.438V339.844H190.781C190.579 340.558 190.391 341.014 190.219 341.219C190.051 341.422 189.729 341.531 189.25 341.531C188.674 341.531 187.646 341.289 186.188 340.812C183.062 339.76 180.181 339.219 177.531 339.219ZM235.75 339.219C229.874 339.219 224.539 340.604 219.719 343.375C214.891 346.141 211.07 349.982 208.25 354.875C205.431 359.767 204.031 364.963 204.031 370.5C204.031 377.939 206.466 384.566 211.375 390.375C216.286 396.18 222.171 399.797 229 401.187C230.561 402.001 232.795 404.101 235.719 407.5C239.014 411.336 241.801 414.102 244.094 415.75C246.384 417.398 248.856 418.606 251.469 419.406C254.084 420.203 256.911 420.594 259.969 420.594C263.671 420.594 266.986 419.95 269.906 418.625L269.25 417C267.555 417.611 265.747 417.906 263.844 417.906C261.26 417.906 258.649 417.054 256.031 415.344C253.418 413.629 250.149 410.357 246.25 405.531C244.418 403.219 243.152 401.76 242.438 401.187C249.909 399.728 256.052 396.107 260.844 390.312C265.634 384.52 268.031 377.909 268.031 370.5C268.031 361.703 264.901 354.309 258.688 348.281C252.469 342.253 244.821 339.219 235.75 339.219ZM272.094 339.219L272.187 341.125C276.1 341.125 278.291 342.277 278.781 344.594C278.964 345.423 279.047 346.953 279.062 349.156L279.031 391.312C278.999 394.461 278.55 396.471 277.688 397.344C276.824 398.21 275.364 398.752 273.25 398.969L273.156 400.875H312.156L313.156 391.312H311.375C310.866 393.917 309.7 395.784 307.844 396.844C305.983 397.912 302.691 398.437 297.938 398.437H294.25C289.973 398.437 287.498 396.891 286.844 393.781C286.709 393.166 286.663 392.506 286.656 391.781L286.813 349.156C286.812 346.013 287.209 343.906 288.031 342.875C288.863 341.847 290.361 341.272 292.531 341.125L292.438 339.219H272.094H272.094ZM236.375 341.531C243.003 341.531 248.414 344.141 252.594 349.406C256.773 354.673 258.844 361.891 258.844 371.031C258.844 379.692 256.742 386.627 252.531 391.844C248.32 397.058 242.715 399.656 235.75 399.656C229.059 399.656 223.633 396.977 219.469 391.594C215.309 386.21 213.25 379.22 213.25 370.625C213.25 361.792 215.334 354.722 219.531 349.438C223.726 344.159 229.344 341.531 236.375 341.531ZM326.062 350.594C325.111 350.594 324.386 350.915 323.844 351.562C323.289 352.207 323.119 352.989 323.312 353.938C323.5 354.858 324.019 355.664 324.844 356.344C325.664 357.022 326.549 357.375 327.5 357.375C328.42 357.375 329.121 357.022 329.625 356.344C330.129 355.664 330.282 354.858 330.094 353.938C329.9 352.989 329.399 352.207 328.625 351.562C327.842 350.915 326.983 350.594 326.062 350.594ZM351.781 357.062C350.165 363.28 346.661 366.645 341.281 367.188L341.344 368.969H347.625L347.5 390.031C347.51 393.632 347.62 396.03 347.875 397.25C348.494 400.171 350.401 401.656 353.594 401.656C358.213 401.656 363.057 398.843 368.125 393.219L366.594 391.906C362.935 395.61 359.7 397.469 356.875 397.469C355.139 397.469 354.062 396.47 353.656 394.5C353.545 394.021 353.5 393.462 353.5 392.812L353.562 368.969H363.156L363.063 366.125H353.594V357.062H351.781H351.781ZM388.875 365C383.509 365 379.144 367.605 375.75 372.781C372.374 377.966 371.329 383.711 372.656 390.031C373.438 393.733 374.994 396.603 377.375 398.625C379.753 400.646 382.769 401.656 386.375 401.656C389.733 401.656 394.408 400.806 396.375 399.094C398.347 397.382 400.165 394.61 401.844 390.812L400.5 389.406C397.822 394.332 392.419 396.812 388.344 396.812C382.741 396.812 379.31 393.739 378.031 387.625C377.865 386.845 377.741 386.006 377.656 385.125C384.321 384.07 389.372 382.201 392.781 379.5C396.188 376.797 399.608 373.933 398.969 370.906C398.589 369.108 397.655 367.694 396.219 366.625C394.764 365.557 390.986 365 388.875 365ZM330.219 365.219L318.656 367.875V369.938L322.656 369.438C324.594 369.438 325.734 370.315 326.094 372.062C326.215 372.647 326.291 373.469 326.312 374.5L326.188 393.406C326.155 396.022 325.865 397.543 325.281 398C324.692 398.457 323.14 398.687 320.625 398.687L320.562 400.469H338.906L338.875 398.687C336.326 398.687 334.674 398.486 333.938 398.094C333.214 397.704 332.715 396.994 332.5 395.906C332.334 395.123 332.261 393.772 332.25 391.906L332.313 365.219H330.219H330.219ZM385.938 368.719C387.054 368.719 388.133 369.15 389.219 370C390.29 370.847 390.942 371.789 391.156 372.812C392.202 377.839 387.746 381.314 377.719 383.25C377.433 379.585 378.067 376.258 379.688 373.25C381.295 370.245 383.389 368.719 385.938 368.719Z" fill="#003B57"/>
<path d="M151.632 267.036H52.1255C45.4565 267.036 40 272.494 40 279.162V388.899C40 395.567 45.4565 401.024 52.1255 401.024H117.663C116.919 368.415 128.054 305.13 151.632 267.036Z" fill="#0F80CC"/>
<path d="M148.016 270.574H52.1255C47.3901 270.574 43.5366 274.426 43.5366 279.162V380.893C65.2539 372.558 97.8488 365.366 120.386 365.692C124.915 342.011 138.226 295.602 148.016 270.574V270.574Z" fill="url(#paint0_linear)"/>
<path d="M174.842 263.445C168.027 257.367 159.775 259.809 151.632 267.036C150.423 268.11 149.217 269.301 148.017 270.574C134.085 285.352 121.154 312.727 117.137 333.634C118.702 336.807 119.924 340.857 120.729 343.951C120.935 344.745 121.122 345.49 121.27 346.124C121.624 347.624 121.814 348.596 121.814 348.596C121.814 348.596 121.689 348.124 121.177 346.637C121.079 346.352 120.97 346.041 120.842 345.675C120.787 345.524 120.71 345.34 120.627 345.144C119.718 343.031 117.204 338.572 116.098 336.631C115.152 339.422 114.315 342.034 113.615 344.396C116.809 350.24 118.755 360.254 118.755 360.254C118.755 360.254 118.586 359.605 117.784 357.34C117.071 355.336 113.523 349.119 112.682 347.665C111.244 352.974 110.673 356.558 111.188 357.43C112.188 359.121 113.141 362.039 113.978 365.265C115.868 372.534 117.182 381.382 117.182 381.382C117.182 381.382 117.224 381.969 117.295 382.871C117.033 388.975 117.19 395.304 117.663 401.024C118.289 408.596 119.468 415.101 120.97 418.582L121.99 418.026C119.784 411.167 118.888 402.179 119.28 391.812C119.874 375.967 123.52 356.859 130.258 336.942C141.64 306.877 157.433 282.755 171.887 271.235C158.713 283.132 140.883 321.644 135.545 335.905C129.569 351.875 125.334 366.861 122.782 381.22C127.185 367.759 141.424 361.973 141.424 361.973C141.424 361.973 148.408 353.36 156.569 341.055C151.68 342.17 143.653 344.079 140.964 345.209C136.998 346.872 135.929 347.44 135.929 347.44C135.929 347.44 148.776 339.616 159.799 336.074C174.958 312.199 191.473 278.281 174.842 263.445" fill="#003B57"/>
<defs>
<linearGradient id="paint0_linear" x1="103.781" y1="272.831" x2="103.781" y2="374.758" gradientUnits="userSpaceOnUse">
<stop stop-color="#97D9F6"/>
<stop offset="0.920245" stop-color="#0F80CC"/>
<stop offset="1" stop-color="#0F80CC"/>
</linearGradient>
</defs>
</svg>
